<svg width="260" height="210" viewBox="0 0 260 210" fill="none" xmlns="http://www.w3.org/2000/svg">
<mask id="path-1-inside-1_67_593" fill="white">
<path d="M1.69421 209L1.69421 201.568L1.5 201.453C5.45749 201.371 8.63805 198.088 8.63805 194.038C8.63805 189.988 5.45749 186.705 1.5 186.623L1.5 179.2C5.45749 179.117 8.63805 175.834 8.63805 171.785C8.63805 167.735 5.45749 164.452 1.5 164.37L1.5 156.946C5.45749 156.864 8.63805 153.581 8.63805 149.531C8.63805 145.482 5.45749 142.199 1.5 142.116L1.5 134.693C5.45749 134.611 8.63805 131.328 8.63805 127.278C8.63804 123.228 5.45749 119.946 1.5 119.863L1.5 112.44C5.45749 112.357 8.63804 109.075 8.63804 105.025C8.63804 100.975 5.45749 97.6922 1.5 97.6097L1.49999 90.1865C5.45748 90.104 8.63804 86.8213 8.63804 82.7715C8.63804 78.7216 5.45748 75.4389 1.49999 75.3564L1.49999 67.9332C5.45748 67.8507 8.63804 64.5679 8.63804 60.5181C8.63804 56.4683 5.45748 53.1856 1.49999 53.1031L1.49999 45.6799C5.45748 45.5974 8.63804 42.3147 8.63804 38.2648C8.63804 34.215 5.45748 30.9323 1.49999 30.8498L1.49999 23.4265L1.64567 23.4265C5.6679 23.4265 8.92939 20.1026 8.92939 16.0033C8.92939 11.904 5.6679 8.58002 1.64567 8.58002L1.49999 8.58002L1.49999 1.00002L8.2334 1.00001C8.31433 5.03332 11.5353 8.27483 15.509 8.27483C19.4827 8.27483 22.7037 5.03332 22.7846 1.00001L28.9192 1.00001L28.9192 1.14848C28.9192 5.24777 32.1807 8.57176 36.2029 8.57176C40.2251 8.57176 43.4866 5.24777 43.4866 1.14848L43.4866 1.00001L49.6211 1.00001L49.6211 1.14848C49.6211 5.24777 52.8826 8.57176 56.9048 8.57176C60.927 8.57176 64.1886 5.24777 64.1886 1.14848L64.1886 1.00001L70.3231 1.00001L70.3231 1.14848C70.3231 5.24777 73.5846 8.57176 77.6068 8.57176C81.629 8.57176 84.8905 5.24777 84.8905 1.14848L84.8905 1.00001L91.025 1.00001L91.025 1.14848C91.025 5.24777 94.2865 8.57176 98.3088 8.57176C102.331 8.57176 105.592 5.24777 105.592 1.14848L105.592 1.00001L111.727 1.00001L111.727 1.14848C111.727 5.24777 114.989 8.57176 119.011 8.57176C123.033 8.57176 126.294 5.24777 126.294 1.14848L126.294 1.00001L132.429 1.00001L132.429 1.14848C132.429 5.24777 135.69 8.57176 139.713 8.57176C143.735 8.57176 146.996 5.24777 146.996 1.14848L146.996 1.00001L153.131 1.00001L153.131 1.14848C153.131 5.24777 156.392 8.57176 160.415 8.57176C164.437 8.57175 167.698 5.24776 167.698 1.14848L167.698 1.00001L173.833 1.00001L173.833 1.14848C173.833 5.24776 177.094 8.57175 181.117 8.57175C185.139 8.57175 188.4 5.24776 188.4 1.14848L188.4 1.00001L194.535 1.00001L194.535 1.14847C194.535 5.24776 197.796 8.57175 201.819 8.57175C205.841 8.57175 209.102 5.24776 209.102 1.14847L209.102 1.00001L215.237 1.00001L215.237 1.14847C215.237 5.24776 218.498 8.57175 222.521 8.57175C226.543 8.57175 229.804 5.24776 229.804 1.14847L229.804 1.00001L235.641 1.00001L235.641 1.14847C235.641 5.24776 238.902 8.57175 242.924 8.57175C246.947 8.57175 250.208 5.24776 250.208 1.14847L250.208 1L257.5 1L257.5 8.58001C253.543 8.66248 250.362 11.9452 250.362 15.995C250.362 20.0448 253.543 23.3275 257.5 23.41L257.5 30.8333L257.354 30.8333C253.332 30.8333 250.071 34.1573 250.071 38.2566C250.071 42.3559 253.332 45.6798 257.354 45.6798L257.5 45.6798L257.5 53.1031L257.354 53.1031C253.332 53.1031 250.071 56.4271 250.071 60.5264C250.071 64.6257 253.332 67.9496 257.354 67.9496L257.5 67.9496L257.5 75.3729L257.354 75.3729C253.332 75.3729 250.071 78.6969 250.071 82.7962C250.071 86.8955 253.332 90.2194 257.354 90.2194L257.5 90.2194L257.5 97.6427L257.354 97.6427C253.332 97.6427 250.071 100.967 250.071 105.066C250.071 109.165 253.332 112.489 257.354 112.489L257.5 112.489L257.5 119.913L257.354 119.913C253.332 119.913 250.071 123.237 250.071 127.336C250.071 131.435 253.332 134.759 257.354 134.759L257.5 134.759L257.5 142.182L257.354 142.182C253.332 142.182 250.071 145.506 250.071 149.606C250.071 153.705 253.332 157.029 257.354 157.029L257.5 157.029L257.5 164.452L257.354 164.452C253.332 164.452 250.071 167.776 250.071 171.875C250.071 175.975 253.332 179.299 257.354 179.299L257.5 179.299L257.5 186.722L257.354 186.722C253.332 186.722 250.071 190.046 250.071 194.145C250.071 198.244 253.332 201.568 257.354 201.568L257.5 201.568L257.5 209L250.216 209C250.216 204.901 246.955 201.577 242.933 201.577C238.91 201.577 235.649 204.901 235.649 209L229.845 209C229.845 204.901 226.583 201.577 222.561 201.577C218.539 201.577 215.277 204.901 215.277 209L209.159 209C209.159 204.901 205.897 201.577 201.875 201.577C197.853 201.577 194.592 204.901 194.592 209L188.473 209C188.473 204.901 185.212 201.577 181.189 201.577C177.167 201.577 173.906 204.901 173.906 209L167.787 209C167.787 204.901 164.526 201.577 160.504 201.577C156.481 201.577 153.22 204.901 153.22 209L147.102 209C147.102 204.901 143.84 201.577 139.818 201.577C135.796 201.577 132.534 204.901 132.534 209L126.416 209C126.416 204.901 123.154 201.577 119.132 201.577C115.11 201.577 111.848 204.901 111.848 209L105.73 209C105.73 204.901 102.469 201.577 98.4463 201.577C94.4241 201.577 91.1626 204.901 91.1626 209L85.0443 209C85.0443 204.901 81.7828 201.577 77.7606 201.577C73.7383 201.577 70.4768 204.901 70.4768 209L64.3585 209C64.3585 204.901 61.097 201.577 57.0748 201.577C53.0526 201.577 49.7911 204.901 49.7911 209L43.6727 209C43.6727 204.901 40.4113 201.577 36.389 201.577C32.3668 201.577 29.1053 204.901 29.1053 209L22.9708 209L22.9708 208.999C22.9789 208.901 22.987 208.802 22.987 208.703C22.987 204.604 19.7255 201.28 15.7032 201.28C11.681 201.28 8.41952 204.604 8.41952 208.703C8.41952 208.802 8.43573 208.901 8.43573 209L1.69421 209Z"/>
</mask>
<path d="M235.939 1.00001L236.939 1L236.939 4.96743e-06L235.939 5.01114e-06L235.939 1.00001ZM235.649 209L235.649 210L235.963 210L235.963 209L235.963 208L235.649 208L235.649 209ZM235.939 1.14847L236.939 1.14847L236.939 1L235.939 1.00001L234.939 1.00001L234.939 1.14847L235.939 1.14847ZM235.939 1.00001L235.939 5.01114e-06L235.641 5.02417e-06L235.641 1.00001L235.641 2.00001L235.939 2.00001L235.939 1.00001ZM1.69421 201.568L3.69421 201.568L3.69421 200.431L2.71634 199.849L1.69421 201.568ZM1.69421 209L-0.305786 209L-0.305786 211L1.69421 211L1.69421 209ZM8.43573 209L8.43573 211L10.4357 211L10.4357 209L8.43573 209ZM22.9708 208.999L24.9641 209.163L24.9642 209.162L22.9708 208.999ZM22.9708 209L20.9775 208.836L20.7993 211L22.9708 211L22.9708 209ZM29.1053 209L29.1053 211L31.1053 211L31.1053 209L29.1053 209ZM43.6727 209L41.6727 209L41.6727 211L43.6727 211L43.6727 209ZM49.7911 209L49.7911 211L51.7911 211L51.7911 209L49.7911 209ZM64.3585 209L62.3585 209L62.3585 211L64.3585 211L64.3585 209ZM70.4768 209L70.4768 211L72.4768 211L72.4768 209L70.4768 209ZM85.0443 209L83.0443 209L83.0443 211L85.0443 211L85.0443 209ZM91.1626 209L91.1626 211L93.1626 211L93.1626 209L91.1626 209ZM105.73 209L103.73 209L103.73 211L105.73 211L105.73 209ZM111.848 209L111.848 211L113.848 211L113.848 209L111.848 209ZM126.416 209L124.416 209L124.416 211L126.416 211L126.416 209ZM132.534 209L132.534 211L134.534 211L134.534 209L132.534 209ZM147.102 209L145.102 209L145.102 211L147.102 211L147.102 209ZM153.22 209L153.22 211L155.22 211L155.22 209L153.22 209ZM167.787 209L165.787 209L165.787 211L167.787 211L167.787 209ZM173.906 209L173.906 211L175.906 211L175.906 209L173.906 209ZM188.473 209L186.473 209L186.473 211L188.473 211L188.473 209ZM194.592 209L194.592 211L196.592 211L196.592 209L194.592 209ZM209.159 209L207.159 209L207.159 211L209.159 211L209.159 209ZM215.277 209L215.277 211L217.277 211L217.277 209L215.277 209ZM229.845 209L227.845 209L227.845 211L229.845 211L229.845 209ZM235.649 209L235.649 211L237.649 211L237.649 209L235.649 209ZM250.216 209L248.216 209L248.216 211L250.216 211L250.216 209ZM257.5 209L257.5 211L259.5 211L259.5 209L257.5 209ZM257.5 201.568L259.5 201.568L259.5 199.568L257.5 199.568L257.5 201.568ZM257.5 186.722L257.5 188.722L259.5 188.722L259.5 186.722L257.5 186.722ZM257.5 179.299L259.5 179.299L259.5 177.299L257.5 177.299L257.5 179.299ZM257.5 164.452L257.5 166.452L259.5 166.452L259.5 164.452L257.5 164.452ZM257.5 157.029L259.5 157.029L259.5 155.029L257.5 155.029L257.5 157.029ZM257.5 142.182L257.5 144.182L259.5 144.182L259.5 142.182L257.5 142.182ZM257.5 134.759L259.5 134.759L259.5 132.759L257.5 132.759L257.5 134.759ZM257.5 119.913L257.5 121.913L259.5 121.913L259.5 119.913L257.5 119.913ZM257.5 112.489L259.5 112.489L259.5 110.489L257.5 110.489L257.5 112.489ZM257.5 97.6427L257.5 99.6427L259.5 99.6427L259.5 97.6427L257.5 97.6427ZM257.5 90.2194L259.5 90.2194L259.5 88.2194L257.5 88.2194L257.5 90.2194ZM257.5 75.3729L257.5 77.3729L259.5 77.3729L259.5 75.3729L257.5 75.3729ZM257.5 67.9496L259.5 67.9496L259.5 65.9496L257.5 65.9496L257.5 67.9496ZM257.5 53.1031L257.5 55.1031L259.5 55.1031L259.5 53.1031L257.5 53.1031ZM257.5 45.6798L259.5 45.6798L259.5 43.6798L257.5 43.6798L257.5 45.6798ZM257.5 30.8333L257.5 32.8333L259.5 32.8333L259.5 30.8333L257.5 30.8333ZM257.5 23.41L259.5 23.41L259.5 21.4513L257.542 21.4105L257.5 23.41ZM257.5 8.58001L257.542 10.5796L259.5 10.5388L259.5 8.58001L257.5 8.58001ZM257.5 1L259.5 1L259.5 -0.999996L257.5 -0.999996L257.5 1ZM250.208 1L250.208 -0.999996L248.208 -0.999996L248.208 1L250.208 1ZM235.641 1.00001L237.641 1L237.641 -0.999995L235.641 -0.999995L235.641 1.00001ZM229.804 1.00001L229.804 -0.999995L227.804 -0.999995L227.804 1.00001L229.804 1.00001ZM215.237 1.00001L217.237 1.00001L217.237 -0.999994L215.237 -0.999994L215.237 1.00001ZM209.102 1.00001L209.102 -0.999994L207.102 -0.999994L207.102 1.00001L209.102 1.00001ZM194.535 1.00001L196.535 1.00001L196.535 -0.999993L194.535 -0.999993L194.535 1.00001ZM188.4 1.00001L188.4 -0.999993L186.4 -0.999993L186.4 1.00001L188.4 1.00001ZM173.833 1.00001L175.833 1.00001L175.833 -0.999992L173.833 -0.999992L173.833 1.00001ZM167.698 1.00001L167.698 -0.999992L165.698 -0.999992L165.698 1.00001L167.698 1.00001ZM153.131 1.00001L155.131 1.00001L155.131 -0.999991L153.131 -0.999991L153.131 1.00001ZM146.996 1.00001L146.996 -0.999991L144.996 -0.999991L144.996 1.00001L146.996 1.00001ZM132.429 1.00001L134.429 1.00001L134.429 -0.999991L132.429 -0.99999L132.429 1.00001ZM126.294 1.00001L126.294 -0.99999L124.294 -0.99999L124.294 1.00001L126.294 1.00001ZM111.727 1.00001L113.727 1.00001L113.727 -0.99999L111.727 -0.99999L111.727 1.00001ZM105.592 1.00001L105.592 -0.999989L103.592 -0.999989L103.592 1.00001L105.592 1.00001ZM91.025 1.00001L93.025 1.00001L93.025 -0.999989L91.025 -0.999989L91.025 1.00001ZM84.8905 1.00001L84.8905 -0.999988L82.8905 -0.999988L82.8905 1.00001L84.8905 1.00001ZM70.3231 1.00001L72.3231 1.00001L72.3231 -0.999988L70.3231 -0.999988L70.3231 1.00001ZM64.1886 1.00001L64.1886 -0.999987L62.1886 -0.999987L62.1886 1.00001L64.1886 1.00001ZM49.6211 1.00001L51.6211 1.00001L51.6211 -0.999987L49.6211 -0.999987L49.6211 1.00001ZM43.4866 1.00001L43.4866 -0.999987L41.4866 -0.999986L41.4866 1.00001L43.4866 1.00001ZM28.9192 1.00001L30.9192 1.00001L30.9192 -0.999986L28.9192 -0.999986L28.9192 1.00001ZM22.7846 1.00001L22.7846 -0.999986L20.8244 -0.999986L20.785 0.959884L22.7846 1.00001ZM8.2334 1.00001L10.233 0.9599L10.1937 -0.999985L8.2334 -0.999985L8.2334 1.00001ZM1.49999 1.00002L1.49999 -0.999985L-0.500009 -0.999985L-0.500009 1.00002L1.49999 1.00002ZM1.49999 8.58002L-0.500009 8.58002L-0.500009 10.58L1.49999 10.58L1.49999 8.58002ZM1.49999 23.4265L1.49999 21.4265L-0.500008 21.4265L-0.500008 23.4265L1.49999 23.4265ZM1.49999 30.8498L-0.500008 30.8498L-0.500008 32.8086L1.45832 32.8494L1.49999 30.8498ZM1.49999 45.6799L1.45832 43.6803L-0.500007 43.7211L-0.500007 45.6799L1.49999 45.6799ZM1.49999 53.1031L-0.500007 53.1031L-0.500007 55.0619L1.45832 55.1027L1.49999 53.1031ZM1.49999 67.9332L1.45832 65.9336L-0.500006 65.9744L-0.500006 67.9332L1.49999 67.9332ZM1.49999 75.3564L-0.500006 75.3564L-0.500006 77.3152L1.45832 77.356L1.49999 75.3564ZM1.49999 90.1865L1.45832 88.1869L-0.500005 88.2277L-0.500005 90.1865L1.49999 90.1865ZM1.5 97.6097L-0.500005 97.6097L-0.500005 99.5685L1.45832 99.6093L1.5 97.6097ZM1.5 112.44L1.45832 110.44L-0.500004 110.481L-0.500004 112.44L1.5 112.44ZM1.5 119.863L-0.500004 119.863L-0.500004 121.822L1.45832 121.863L1.5 119.863ZM1.5 134.693L1.45832 132.694L-0.500003 132.734L-0.500003 134.693L1.5 134.693ZM1.5 142.116L-0.500003 142.116L-0.500003 144.075L1.45832 144.116L1.5 142.116ZM1.5 156.946L1.45832 154.947L-0.500002 154.988L-0.500002 156.946L1.5 156.946ZM1.5 164.37L-0.500002 164.37L-0.500002 166.328L1.45832 166.369L1.5 164.37ZM1.5 179.2L1.45832 177.2L-0.500001 177.241L-0.500001 179.2L1.5 179.2ZM1.5 186.623L-0.500001 186.623L-0.500001 188.582L1.45832 188.623L1.5 186.623ZM1.5 201.453L1.45833 199.453L-5.53138 199.599L0.47787 203.172L1.5 201.453ZM1.69421 201.568L-0.305786 201.568L-0.305786 209L1.69421 209L3.69421 209L3.69421 201.568L1.69421 201.568ZM1.69421 209L1.69421 211L8.43573 211L8.43573 209L8.43573 207L1.69421 207L1.69421 209ZM8.43573 209L10.4357 209C10.4357 208.922 10.4326 208.854 10.4294 208.803C10.4265 208.755 10.4227 208.71 10.421 208.688C10.4199 208.675 10.4193 208.668 10.4188 208.661C10.4183 208.655 10.4182 208.654 10.4183 208.655C10.4184 208.656 10.4195 208.674 10.4195 208.703L8.41952 208.703L6.41952 208.703C6.41952 208.781 6.4227 208.849 6.42582 208.9C6.42879 208.948 6.43255 208.993 6.4343 209.015C6.43538 209.028 6.43597 209.035 6.43647 209.042C6.43692 209.048 6.43701 209.049 6.43696 209.048C6.43688 209.047 6.43573 209.029 6.43573 209L8.43573 209ZM8.41952 208.703L10.4195 208.703C10.4195 205.672 12.8212 203.28 15.7032 203.28L15.7032 201.28L15.7032 199.28C10.5408 199.28 6.41952 203.535 6.41952 208.703L8.41952 208.703ZM15.7032 201.28L15.7032 203.28C18.5853 203.28 20.987 205.672 20.987 208.703L22.987 208.703L24.987 208.703C24.987 203.535 20.8657 199.28 15.7032 199.28L15.7032 201.28ZM22.987 208.703L20.987 208.703C20.987 208.699 20.9871 208.705 20.9857 208.729C20.9841 208.754 20.9818 208.783 20.9775 208.836L22.9708 208.999L24.9642 209.162C24.9711 209.077 24.987 208.897 24.987 208.703L22.987 208.703ZM22.9708 208.999L20.9776 208.835L20.9775 208.836L22.9708 209L24.964 209.164L24.9641 209.163L22.9708 208.999ZM22.9708 209L22.9708 211L29.1053 211L29.1053 209L29.1053 207L22.9708 207L22.9708 209ZM29.1053 209L31.1053 209C31.1053 205.969 33.507 203.577 36.389 203.577L36.389 201.577L36.389 199.577C31.2266 199.577 27.1053 203.832 27.1053 209L29.1053 209ZM36.389 201.577L36.389 203.577C39.2711 203.577 41.6727 205.969 41.6727 209L43.6727 209L45.6727 209C45.6727 203.832 41.5514 199.577 36.389 199.577L36.389 201.577ZM43.6727 209L43.6727 211L49.7911 211L49.7911 209L49.7911 207L43.6727 207L43.6727 209ZM49.7911 209L51.7911 209C51.7911 205.969 54.1927 203.577 57.0748 203.577L57.0748 201.577L57.0748 199.577C51.9124 199.577 47.7911 203.832 47.7911 209L49.7911 209ZM57.0748 201.577L57.0748 203.577C59.9568 203.577 62.3585 205.969 62.3585 209L64.3585 209L66.3585 209C66.3585 203.832 62.2372 199.577 57.0748 199.577L57.0748 201.577ZM64.3585 209L64.3585 211L70.4768 211L70.4768 209L70.4768 207L64.3585 207L64.3585 209ZM70.4768 209L72.4768 209C72.4768 205.969 74.8785 203.577 77.7606 203.577L77.7606 201.577L77.7606 199.577C72.5982 199.577 68.4768 203.832 68.4768 209L70.4768 209ZM77.7606 201.577L77.7606 203.577C80.6426 203.577 83.0443 205.969 83.0443 209L85.0443 209L87.0443 209C87.0443 203.832 82.923 199.577 77.7606 199.577L77.7606 201.577ZM85.0443 209L85.0443 211L91.1626 211L91.1626 209L91.1626 207L85.0443 207L85.0443 209ZM91.1626 209L93.1626 209C93.1626 205.969 95.5643 203.577 98.4463 203.577L98.4463 201.577L98.4463 199.577C93.2839 199.577 89.1626 203.832 89.1626 209L91.1626 209ZM98.4463 201.577L98.4463 203.577C101.328 203.577 103.73 205.969 103.73 209L105.73 209L107.73 209C107.73 203.832 103.609 199.577 98.4463 199.577L98.4463 201.577ZM105.73 209L105.73 211L111.848 211L111.848 209L111.848 207L105.73 207L105.73 209ZM111.848 209L113.848 209C113.848 205.969 116.25 203.577 119.132 203.577L119.132 201.577L119.132 199.577C113.97 199.577 109.848 203.832 109.848 209L111.848 209ZM119.132 201.577L119.132 203.577C122.014 203.577 124.416 205.969 124.416 209L126.416 209L128.416 209C128.416 203.832 124.295 199.577 119.132 199.577L119.132 201.577ZM126.416 209L126.416 211L132.534 211L132.534 209L132.534 207L126.416 207L126.416 209ZM132.534 209L134.534 209C134.534 205.969 136.936 203.577 139.818 203.577L139.818 201.577L139.818 199.577C134.655 199.577 130.534 203.832 130.534 209L132.534 209ZM139.818 201.577L139.818 203.577C142.7 203.577 145.102 205.969 145.102 209L147.102 209L149.102 209C149.102 203.832 144.98 199.577 139.818 199.577L139.818 201.577ZM147.102 209L147.102 211L153.22 211L153.22 209L153.22 207L147.102 207L147.102 209ZM153.22 209L155.22 209C155.22 205.969 157.622 203.577 160.504 203.577L160.504 201.577L160.504 199.577C155.341 199.577 151.22 203.832 151.22 209L153.22 209ZM160.504 201.577L160.504 203.577C163.386 203.577 165.787 205.969 165.787 209L167.787 209L169.787 209C169.787 203.832 165.666 199.577 160.504 199.577L160.504 201.577ZM167.787 209L167.787 211L173.906 211L173.906 209L173.906 207L167.787 207L167.787 209ZM173.906 209L175.906 209C175.906 205.969 178.307 203.577 181.189 203.577L181.189 201.577L181.189 199.577C176.027 199.577 171.906 203.832 171.906 209L173.906 209ZM181.189 201.577L181.189 203.577C184.071 203.577 186.473 205.969 186.473 209L188.473 209L190.473 209C190.473 203.832 186.352 199.577 181.189 199.577L181.189 201.577ZM188.473 209L188.473 211L194.592 211L194.592 209L194.592 207L188.473 207L188.473 209ZM194.592 209L196.592 209C196.592 205.969 198.993 203.577 201.875 203.577L201.875 201.577L201.875 199.577C196.713 199.577 192.592 203.832 192.592 209L194.592 209ZM201.875 201.577L201.875 203.577C204.757 203.577 207.159 205.969 207.159 209L209.159 209L211.159 209C211.159 203.832 207.038 199.577 201.875 199.577L201.875 201.577ZM209.159 209L209.159 211L215.277 211L215.277 209L215.277 207L209.159 207L209.159 209ZM215.277 209L217.277 209C217.277 205.969 219.679 203.577 222.561 203.577L222.561 201.577L222.561 199.577C217.399 199.577 213.277 203.832 213.277 209L215.277 209ZM222.561 201.577L222.561 203.577C225.443 203.577 227.845 205.969 227.845 209L229.845 209L231.845 209C231.845 203.832 227.723 199.577 222.561 199.577L222.561 201.577ZM229.845 209L229.845 211L235.649 211L235.649 209L235.649 207L229.845 207L229.845 209ZM235.649 209L237.649 209C237.649 205.969 240.051 203.577 242.933 203.577L242.933 201.577L242.933 199.577C237.77 199.577 233.649 203.832 233.649 209L235.649 209ZM242.933 201.577L242.933 203.577C245.815 203.577 248.216 205.969 248.216 209L250.216 209L252.216 209C252.216 203.832 248.095 199.577 242.933 199.577L242.933 201.577ZM250.216 209L250.216 211L257.5 211L257.5 209L257.5 207L250.216 207L250.216 209ZM257.5 209L259.5 209L259.5 201.568L257.5 201.568L255.5 201.568L255.5 209L257.5 209ZM257.5 201.568L257.5 199.568L257.354 199.568L257.354 201.568L257.354 203.568L257.5 203.568L257.5 201.568ZM257.354 201.568L257.354 199.568C254.472 199.568 252.071 197.176 252.071 194.145L250.071 194.145L248.071 194.145C248.071 199.313 252.192 203.568 257.354 203.568L257.354 201.568ZM250.071 194.145L252.071 194.145C252.071 191.115 254.472 188.722 257.354 188.722L257.354 186.722L257.354 184.722C252.192 184.722 248.071 188.977 248.071 194.145L250.071 194.145ZM257.354 186.722L257.354 188.722L257.5 188.722L257.5 186.722L257.5 184.722L257.354 184.722L257.354 186.722ZM257.5 186.722L259.5 186.722L259.5 179.299L257.5 179.299L255.5 179.299L255.5 186.722L257.5 186.722ZM257.5 179.299L257.5 177.299L257.354 177.299L257.354 179.299L257.354 181.299L257.5 181.299L257.5 179.299ZM257.354 179.299L257.354 177.299C254.472 177.299 252.071 174.906 252.071 171.875L250.071 171.875L248.071 171.875C248.071 177.043 252.192 181.299 257.354 181.299L257.354 179.299ZM250.071 171.875L252.071 171.875C252.071 168.845 254.472 166.452 257.354 166.452L257.354 164.452L257.354 162.452C252.192 162.452 248.071 166.707 248.071 171.875L250.071 171.875ZM257.354 164.452L257.354 166.452L257.5 166.452L257.5 164.452L257.5 162.452L257.354 162.452L257.354 164.452ZM257.5 164.452L259.5 164.452L259.5 157.029L257.5 157.029L255.5 157.029L255.5 164.452L257.5 164.452ZM257.5 157.029L257.5 155.029L257.354 155.029L257.354 157.029L257.354 159.029L257.5 159.029L257.5 157.029ZM257.354 157.029L257.354 155.029C254.472 155.029 252.071 152.636 252.071 149.606L250.071 149.606L248.071 149.606C248.071 154.774 252.192 159.029 257.354 159.029L257.354 157.029ZM250.071 149.606L252.071 149.606C252.071 146.575 254.472 144.182 257.354 144.182L257.354 142.182L257.354 140.182C252.192 140.182 248.071 144.438 248.071 149.606L250.071 149.606ZM257.354 142.182L257.354 144.182L257.5 144.182L257.5 142.182L257.5 140.182L257.354 140.182L257.354 142.182ZM257.5 142.182L259.5 142.182L259.5 134.759L257.5 134.759L255.5 134.759L255.5 142.182L257.5 142.182ZM257.5 134.759L257.5 132.759L257.354 132.759L257.354 134.759L257.354 136.759L257.5 136.759L257.5 134.759ZM257.354 134.759L257.354 132.759C254.472 132.759 252.071 130.366 252.071 127.336L250.071 127.336L248.071 127.336C248.071 132.504 252.192 136.759 257.354 136.759L257.354 134.759ZM250.071 127.336L252.071 127.336C252.071 124.305 254.472 121.913 257.354 121.913L257.354 119.913L257.354 117.913C252.192 117.913 248.071 122.168 248.071 127.336L250.071 127.336ZM257.354 119.913L257.354 121.913L257.5 121.913L257.5 119.913L257.5 117.913L257.354 117.913L257.354 119.913ZM257.5 119.913L259.5 119.913L259.5 112.489L257.5 112.489L255.5 112.489L255.5 119.913L257.5 119.913ZM257.5 112.489L257.5 110.489L257.354 110.489L257.354 112.489L257.354 114.489L257.5 114.489L257.5 112.489ZM257.354 112.489L257.354 110.489C254.472 110.489 252.071 108.097 252.071 105.066L250.071 105.066L248.071 105.066C248.071 110.234 252.192 114.489 257.354 114.489L257.354 112.489ZM250.071 105.066L252.071 105.066C252.071 102.035 254.472 99.6427 257.354 99.6427L257.354 97.6427L257.354 95.6427C252.192 95.6427 248.071 99.8981 248.071 105.066L250.071 105.066ZM257.354 97.6427L257.354 99.6427L257.5 99.6427L257.5 97.6427L257.5 95.6427L257.354 95.6427L257.354 97.6427ZM257.5 97.6427L259.5 97.6427L259.5 90.2194L257.5 90.2194L255.5 90.2194L255.5 97.6427L257.5 97.6427ZM257.5 90.2194L257.5 88.2194L257.354 88.2194L257.354 90.2194L257.354 92.2194L257.5 92.2194L257.5 90.2194ZM257.354 90.2194L257.354 88.2194C254.472 88.2194 252.071 85.8269 252.071 82.7962L250.071 82.7962L248.071 82.7962C248.071 87.9641 252.192 92.2194 257.354 92.2194L257.354 90.2194ZM250.071 82.7962L252.071 82.7962C252.071 79.7655 254.472 77.3729 257.354 77.3729L257.354 75.3729L257.354 73.3729C252.192 73.3729 248.071 77.6283 248.071 82.7962L250.071 82.7962ZM257.354 75.3729L257.354 77.3729L257.5 77.3729L257.5 75.3729L257.5 73.3729L257.354 73.3729L257.354 75.3729ZM257.5 75.3729L259.5 75.3729L259.5 67.9496L257.5 67.9496L255.5 67.9496L255.5 75.3729L257.5 75.3729ZM257.5 67.9496L257.5 65.9496L257.354 65.9496L257.354 67.9496L257.354 69.9496L257.5 69.9496L257.5 67.9496ZM257.354 67.9496L257.354 65.9496C254.472 65.9496 252.071 63.557 252.071 60.5264L250.071 60.5264L248.071 60.5264C248.071 65.6943 252.192 69.9496 257.354 69.9496L257.354 67.9496ZM250.071 60.5264L252.071 60.5264C252.071 57.4957 254.472 55.1031 257.354 55.1031L257.354 53.1031L257.354 51.1031C252.192 51.1031 248.071 55.3585 248.071 60.5264L250.071 60.5264ZM257.354 53.1031L257.354 55.1031L257.5 55.1031L257.5 53.1031L257.5 51.1031L257.354 51.1031L257.354 53.1031ZM257.5 53.1031L259.5 53.1031L259.5 45.6798L257.5 45.6798L255.5 45.6798L255.5 53.1031L257.5 53.1031ZM257.5 45.6798L257.5 43.6798L257.354 43.6798L257.354 45.6798L257.354 47.6798L257.5 47.6798L257.5 45.6798ZM257.354 45.6798L257.354 43.6798C254.472 43.6798 252.071 41.2873 252.071 38.2566L250.071 38.2566L248.071 38.2566C248.071 43.4245 252.192 47.6798 257.354 47.6798L257.354 45.6798ZM250.071 38.2566L252.071 38.2566C252.071 35.2259 254.472 32.8333 257.354 32.8333L257.354 30.8333L257.354 28.8333C252.192 28.8333 248.071 33.0887 248.071 38.2566L250.071 38.2566ZM257.354 30.8333L257.354 32.8333L257.5 32.8333L257.5 30.8333L257.5 28.8333L257.354 28.8333L257.354 30.8333ZM257.5 30.8333L259.5 30.8333L259.5 23.41L257.5 23.41L255.5 23.41L255.5 30.8333L257.5 30.8333ZM257.5 23.41L257.542 21.4105C254.701 21.3512 252.362 18.9851 252.362 15.995L250.362 15.995L248.362 15.995C248.362 21.1046 252.384 25.3039 257.458 25.4096L257.5 23.41ZM250.362 15.995L252.362 15.995C252.362 13.005 254.701 10.6388 257.542 10.5796L257.5 8.58001L257.458 6.58043C252.384 6.68618 248.362 10.8854 248.362 15.995L250.362 15.995ZM257.5 8.58001L259.5 8.58001L259.5 1L257.5 1L255.5 1L255.5 8.58001L257.5 8.58001ZM257.5 1L257.5 -0.999996L250.208 -0.999996L250.208 1L250.208 3L257.5 3L257.5 1ZM250.208 1L248.208 1L248.208 1.14847L250.208 1.14847L252.208 1.14847L252.208 1L250.208 1ZM250.208 1.14847L248.208 1.14847C248.208 4.17914 245.807 6.57175 242.924 6.57175L242.924 8.57175L242.924 10.5718C248.087 10.5718 252.208 6.31638 252.208 1.14847L250.208 1.14847ZM242.924 8.57175L242.924 6.57175C240.042 6.57175 237.641 4.17914 237.641 1.14847L235.641 1.14847L233.641 1.14847C233.641 6.31638 237.762 10.5718 242.924 10.5718L242.924 8.57175ZM235.641 1.14847L237.641 1.14847L237.641 1L235.641 1.00001L233.641 1.00001L233.641 1.14847L235.641 1.14847ZM235.641 1.00001L235.641 -0.999995L229.804 -0.999995L229.804 1.00001L229.804 3.00001L235.641 3.00001L235.641 1.00001ZM229.804 1.00001L227.804 1.00001L227.804 1.14847L229.804 1.14847L231.804 1.14847L231.804 1.00001L229.804 1.00001ZM229.804 1.14847L227.804 1.14847C227.804 4.17916 225.403 6.57175 222.521 6.57175L222.521 8.57175L222.521 10.5718C227.683 10.5718 231.804 6.31637 231.804 1.14847L229.804 1.14847ZM222.521 8.57175L222.521 6.57175C219.638 6.57175 217.237 4.17914 217.237 1.14847L215.237 1.14847L213.237 1.14847C213.237 6.31638 217.358 10.5718 222.521 10.5718L222.521 8.57175ZM215.237 1.14847L217.237 1.14847L217.237 1.00001L215.237 1.00001L213.237 1.00001L213.237 1.14847L215.237 1.14847ZM215.237 1.00001L215.237 -0.999994L209.102 -0.999994L209.102 1.00001L209.102 3.00001L215.237 3.00001L215.237 1.00001ZM209.102 1.00001L207.102 1.00001L207.102 1.14847L209.102 1.14847L211.102 1.14847L211.102 1.00001L209.102 1.00001ZM209.102 1.14847L207.102 1.14847C207.102 4.17916 204.701 6.57175 201.819 6.57175L201.819 8.57175L201.819 10.5718C206.981 10.5718 211.102 6.31637 211.102 1.14847L209.102 1.14847ZM201.819 8.57175L201.819 6.57175C198.937 6.57175 196.535 4.17914 196.535 1.14847L194.535 1.14847L192.535 1.14847C192.535 6.31638 196.656 10.5718 201.819 10.5718L201.819 8.57175ZM194.535 1.14847L196.535 1.14847L196.535 1.00001L194.535 1.00001L192.535 1.00001L192.535 1.14847L194.535 1.14847ZM194.535 1.00001L194.535 -0.999993L188.4 -0.999993L188.4 1.00001L188.4 3.00001L194.535 3.00001L194.535 1.00001ZM188.4 1.00001L186.4 1.00001L186.4 1.14848L188.4 1.14848L190.4 1.14848L190.4 1.00001L188.4 1.00001ZM188.4 1.14848L186.4 1.14848C186.4 4.17915 183.999 6.57175 181.117 6.57175L181.117 8.57175L181.117 10.5718C186.279 10.5718 190.4 6.31638 190.4 1.14848L188.4 1.14848ZM181.117 8.57175L181.117 6.57175C178.235 6.57175 175.833 4.17915 175.833 1.14848L173.833 1.14848L171.833 1.14848C171.833 6.31638 175.954 10.5718 181.117 10.5718L181.117 8.57175ZM173.833 1.14848L175.833 1.14848L175.833 1.00001L173.833 1.00001L171.833 1.00001L171.833 1.14848L173.833 1.14848ZM173.833 1.00001L173.833 -0.999992L167.698 -0.999992L167.698 1.00001L167.698 3.00001L173.833 3.00001L173.833 1.00001ZM167.698 1.00001L165.698 1.00001L165.698 1.14848L167.698 1.14848L169.698 1.14848L169.698 1.00001L167.698 1.00001ZM167.698 1.14848L165.698 1.14848C165.698 4.17915 163.297 6.57176 160.415 6.57176L160.415 8.57176L160.415 10.5718C165.577 10.5718 169.698 6.31638 169.698 1.14848L167.698 1.14848ZM160.415 8.57176L160.415 6.57176C157.533 6.57176 155.131 4.17915 155.131 1.14848L153.131 1.14848L151.131 1.14848C151.131 6.31638 155.252 10.5718 160.415 10.5718L160.415 8.57176ZM153.131 1.14848L155.131 1.14848L155.131 1.00001L153.131 1.00001L151.131 1.00001L151.131 1.14848L153.131 1.14848ZM153.131 1.00001L153.131 -0.999991L146.996 -0.999991L146.996 1.00001L146.996 3.00001L153.131 3.00001L153.131 1.00001ZM146.996 1.00001L144.996 1.00001L144.996 1.14848L146.996 1.14848L148.996 1.14848L148.996 1.00001L146.996 1.00001ZM146.996 1.14848L144.996 1.14848C144.996 4.17915 142.595 6.57176 139.713 6.57176L139.713 8.57176L139.713 10.5718C144.875 10.5718 148.996 6.31638 148.996 1.14848L146.996 1.14848ZM139.713 8.57176L139.713 6.57176C136.831 6.57176 134.429 4.17915 134.429 1.14848L132.429 1.14848L130.429 1.14848C130.429 6.31639 134.55 10.5718 139.713 10.5718L139.713 8.57176ZM132.429 1.14848L134.429 1.14848L134.429 1.00001L132.429 1.00001L130.429 1.00001L130.429 1.14848L132.429 1.14848ZM132.429 1.00001L132.429 -0.99999L126.294 -0.99999L126.294 1.00001L126.294 3.00001L132.429 3.00001L132.429 1.00001ZM126.294 1.00001L124.294 1.00001L124.294 1.14848L126.294 1.14848L128.294 1.14848L128.294 1.00001L126.294 1.00001ZM126.294 1.14848L124.294 1.14848C124.294 4.17915 121.893 6.57176 119.011 6.57176L119.011 8.57176L119.011 10.5718C124.173 10.5718 128.294 6.31639 128.294 1.14848L126.294 1.14848ZM119.011 8.57176L119.011 6.57176C116.129 6.57176 113.727 4.17915 113.727 1.14848L111.727 1.14848L109.727 1.14848C109.727 6.31639 113.848 10.5718 119.011 10.5718L119.011 8.57176ZM111.727 1.14848L113.727 1.14848L113.727 1.00001L111.727 1.00001L109.727 1.00001L109.727 1.14848L111.727 1.14848ZM111.727 1.00001L111.727 -0.99999L105.592 -0.999989L105.592 1.00001L105.592 3.00001L111.727 3.00001L111.727 1.00001ZM105.592 1.00001L103.592 1.00001L103.592 1.14848L105.592 1.14848L107.592 1.14848L107.592 1.00001L105.592 1.00001ZM105.592 1.14848L103.592 1.14848C103.592 4.17915 101.191 6.57176 98.3088 6.57176L98.3088 8.57176L98.3088 10.5718C103.471 10.5718 107.592 6.31639 107.592 1.14848L105.592 1.14848ZM98.3088 8.57176L98.3088 6.57176C95.4267 6.57176 93.025 4.17915 93.025 1.14848L91.025 1.14848L89.025 1.14848C89.025 6.31639 93.1464 10.5718 98.3088 10.5718L98.3088 8.57176ZM91.025 1.14848L93.025 1.14848L93.025 1.00001L91.025 1.00001L89.025 1.00001L89.025 1.14848L91.025 1.14848ZM91.025 1.00001L91.025 -0.999989L84.8905 -0.999988L84.8905 1.00001L84.8905 3.00001L91.025 3.00001L91.025 1.00001ZM84.8905 1.00001L82.8905 1.00001L82.8905 1.14848L84.8905 1.14848L86.8905 1.14848L86.8905 1.00001L84.8905 1.00001ZM84.8905 1.14848L82.8905 1.14848C82.8905 4.17915 80.4888 6.57176 77.6068 6.57176L77.6068 8.57176L77.6068 10.5718C82.7692 10.5718 86.8905 6.31639 86.8905 1.14848L84.8905 1.14848ZM77.6068 8.57176L77.6068 6.57176C74.7247 6.57176 72.3231 4.17915 72.3231 1.14848L70.3231 1.14848L68.3231 1.14848C68.3231 6.31639 72.4444 10.5718 77.6068 10.5718L77.6068 8.57176ZM70.3231 1.14848L72.3231 1.14848L72.3231 1.00001L70.3231 1.00001L68.3231 1.00001L68.3231 1.14848L70.3231 1.14848ZM70.3231 1.00001L70.3231 -0.999988L64.1886 -0.999987L64.1886 1.00001L64.1886 3.00001L70.3231 3.00001L70.3231 1.00001ZM64.1886 1.00001L62.1886 1.00001L62.1886 1.14848L64.1886 1.14848L66.1886 1.14848L66.1886 1.00001L64.1886 1.00001ZM64.1886 1.14848L62.1886 1.14848C62.1886 4.17915 59.7869 6.57176 56.9048 6.57176L56.9048 8.57176L56.9048 10.5718C62.0672 10.5718 66.1886 6.31639 66.1886 1.14848L64.1886 1.14848ZM56.9048 8.57176L56.9048 6.57176C54.0228 6.57176 51.6211 4.17915 51.6211 1.14848L49.6211 1.14848L47.6211 1.14848C47.6211 6.31639 51.7424 10.5718 56.9048 10.5718L56.9048 8.57176ZM49.6211 1.14848L51.6211 1.14848L51.6211 1.00001L49.6211 1.00001L47.6211 1.00001L47.6211 1.14848L49.6211 1.14848ZM49.6211 1.00001L49.6211 -0.999987L43.4866 -0.999987L43.4866 1.00001L43.4866 3.00001L49.6211 3.00001L49.6211 1.00001ZM43.4866 1.00001L41.4866 1.00001L41.4866 1.14848L43.4866 1.14848L45.4866 1.14848L45.4866 1.00001L43.4866 1.00001ZM43.4866 1.14848L41.4866 1.14848C41.4866 4.17915 39.0849 6.57176 36.2029 6.57176L36.2029 8.57176L36.2029 10.5718C41.3653 10.5718 45.4866 6.31639 45.4866 1.14848L43.4866 1.14848ZM36.2029 8.57176L36.2029 6.57176C33.3209 6.57176 30.9192 4.17915 30.9192 1.14848L28.9192 1.14848L26.9192 1.14848C26.9192 6.31639 31.0405 10.5718 36.2029 10.5718L36.2029 8.57176ZM28.9192 1.14848L30.9192 1.14848L30.9192 1.00001L28.9192 1.00001L26.9192 1.00001L26.9192 1.14848L28.9192 1.14848ZM28.9192 1.00001L28.9192 -0.999986L22.7846 -0.999986L22.7846 1.00001L22.7846 3.00001L28.9192 3.00001L28.9192 1.00001ZM22.7846 1.00001L20.785 0.959884C20.7251 3.94566 18.353 6.27483 15.509 6.27483L15.509 8.27483L15.509 10.2748C20.6124 10.2748 24.6823 6.12099 24.7842 1.04014L22.7846 1.00001ZM15.509 8.27483L15.509 6.27483C12.665 6.27483 10.2929 3.94566 10.233 0.9599L8.2334 1.00001L6.23381 1.04013C6.33576 6.12099 10.4057 10.2748 15.509 10.2748L15.509 8.27483ZM8.2334 1.00001L8.2334 -0.999985L1.49999 -0.999985L1.49999 1.00002L1.49999 3.00002L8.2334 3.00001L8.2334 1.00001ZM1.49999 1.00002L-0.500009 1.00002L-0.500009 8.58002L1.49999 8.58002L3.49999 8.58002L3.49999 1.00002L1.49999 1.00002ZM1.49999 8.58002L1.49999 10.58L1.64567 10.58L1.64567 8.58002L1.64567 6.58002L1.49999 6.58002L1.49999 8.58002ZM1.64567 8.58002L1.64567 10.58C4.52772 10.58 6.92939 12.9726 6.92939 16.0033L8.92939 16.0033L10.9294 16.0033C10.9294 10.8354 6.80808 6.58002 1.64567 6.58002L1.64567 8.58002ZM8.92939 16.0033L6.92939 16.0033C6.92939 19.034 4.52772 21.4265 1.64567 21.4265L1.64567 23.4265L1.64567 25.4265C6.80808 25.4265 10.9294 21.1712 10.9294 16.0033L8.92939 16.0033ZM1.64567 23.4265L1.64567 21.4265L1.49999 21.4265L1.49999 23.4265L1.49999 25.4265L1.64567 25.4265L1.64567 23.4265ZM1.49999 23.4265L-0.500008 23.4265L-0.500008 30.8498L1.49999 30.8498L3.49999 30.8498L3.49999 23.4265L1.49999 23.4265ZM1.49999 30.8498L1.45832 32.8494C4.29938 32.9086 6.63804 35.2748 6.63804 38.2648L8.63804 38.2648L10.638 38.2648C10.638 33.1553 6.61558 28.956 1.54166 28.8502L1.49999 30.8498ZM8.63804 38.2648L6.63804 38.2648C6.63804 41.2549 4.2994 43.6211 1.45832 43.6803L1.49999 45.6799L1.54166 47.6794C6.61557 47.5737 10.638 43.3744 10.638 38.2648L8.63804 38.2648ZM1.49999 45.6799L-0.500007 45.6799L-0.500007 53.1031L1.49999 53.1031L3.49999 53.1031L3.49999 45.6799L1.49999 45.6799ZM1.49999 53.1031L1.45832 55.1027C4.29939 55.1619 6.63804 57.5281 6.63804 60.5181L8.63804 60.5181L10.638 60.5181C10.638 55.4086 6.61558 51.2093 1.54166 51.1035L1.49999 53.1031ZM8.63804 60.5181L6.63804 60.5181C6.63804 63.5082 4.29939 65.8744 1.45832 65.9336L1.49999 67.9332L1.54166 69.9327C6.61558 69.827 10.638 65.6277 10.638 60.5181L8.63804 60.5181ZM1.49999 67.9332L-0.500006 67.9332L-0.500006 75.3564L1.49999 75.3564L3.49999 75.3564L3.49999 67.9332L1.49999 67.9332ZM1.49999 75.3564L1.45832 77.356C4.29939 77.4152 6.63804 79.7814 6.63804 82.7715L8.63804 82.7715L10.638 82.7715C10.638 77.6619 6.61558 73.4626 1.54166 73.3569L1.49999 75.3564ZM8.63804 82.7715L6.63804 82.7715C6.63804 85.7615 4.2994 88.1277 1.45832 88.1869L1.49999 90.1865L1.54167 92.186C6.61557 92.0803 10.638 87.881 10.638 82.7715L8.63804 82.7715ZM1.49999 90.1865L-0.500005 90.1865L-0.500005 97.6097L1.5 97.6097L3.5 97.6097L3.49999 90.1865L1.49999 90.1865ZM1.5 97.6097L1.45832 99.6093C4.2994 99.6685 6.63804 102.035 6.63804 105.025L8.63804 105.025L10.638 105.025C10.638 99.9152 6.61557 95.7159 1.54167 95.6102L1.5 97.6097ZM8.63804 105.025L6.63804 105.025C6.63804 108.015 4.2994 110.381 1.45832 110.44L1.5 112.44L1.54167 114.439C6.61558 114.334 10.638 110.134 10.638 105.025L8.63804 105.025ZM1.5 112.44L-0.500004 112.44L-0.500004 119.863L1.5 119.863L3.5 119.863L3.5 112.44L1.5 112.44ZM1.5 119.863L1.45832 121.863C4.2994 121.922 6.63804 124.288 6.63805 127.278L8.63805 127.278L10.638 127.278C10.638 122.168 6.61558 117.969 1.54167 117.863L1.5 119.863ZM8.63805 127.278L6.63805 127.278C6.63805 130.268 4.29939 132.634 1.45832 132.694L1.5 134.693L1.54167 136.693C6.61558 136.587 10.638 132.388 10.638 127.278L8.63805 127.278ZM1.5 134.693L-0.500003 134.693L-0.500003 142.116L1.5 142.116L3.5 142.116L3.5 134.693L1.5 134.693ZM1.5 142.116L1.45832 144.116C4.2994 144.175 6.63805 146.541 6.63805 149.531L8.63805 149.531L10.638 149.531C10.638 144.422 6.61557 140.223 1.54167 140.117L1.5 142.116ZM8.63805 149.531L6.63805 149.531C6.63805 152.521 4.2994 154.888 1.45832 154.947L1.5 156.946L1.54167 158.946C6.61558 158.84 10.638 154.641 10.638 149.531L8.63805 149.531ZM1.5 156.946L-0.500002 156.946L-0.500002 164.37L1.5 164.37L3.5 164.37L3.5 156.946L1.5 156.946ZM1.5 164.37L1.45832 166.369C4.2994 166.428 6.63805 168.795 6.63805 171.785L8.63805 171.785L10.638 171.785C10.638 166.675 6.61558 162.476 1.54167 162.37L1.5 164.37ZM8.63805 171.785L6.63805 171.785C6.63805 174.775 4.2994 177.141 1.45832 177.2L1.5 179.2L1.54167 181.199C6.61558 181.094 10.638 176.894 10.638 171.785L8.63805 171.785ZM1.5 179.2L-0.500001 179.2L-0.500001 186.623L1.5 186.623L3.5 186.623L3.5 179.2L1.5 179.2ZM1.5 186.623L1.45832 188.623C4.2994 188.682 6.63805 191.048 6.63805 194.038L8.63805 194.038L10.638 194.038C10.638 188.928 6.61558 184.729 1.54167 184.623L1.5 186.623ZM8.63805 194.038L6.63805 194.038C6.63805 197.028 4.2994 199.394 1.45833 199.453L1.5 201.453L1.54167 203.453C6.61558 203.347 10.638 199.148 10.638 194.038L8.63805 194.038ZM1.5 201.453L0.47787 203.172L0.672084 203.288L1.69421 201.568L2.71634 199.849L2.52213 199.734L1.5 201.453Z" fill="#847F6A" mask="url(#path-1-inside-1_67_593)"/>
<path d="M215.772 69.655V63.895H223.708C227.1 63.895 228.828 62.295 228.828 59.607V58.967C228.828 55.831 226.204 52.631 223.26 49.175C219.74 44.951 215.708 40.087 215.708 34.903V34.007C215.708 28.823 219.228 24.855 225.692 24.855H234.204V30.615H226.46C223.708 30.615 221.916 32.151 221.916 34.647V35.159C221.916 37.911 224.604 41.047 227.484 44.439C231.004 48.599 235.036 53.463 235.036 58.839V59.735C235.036 65.559 231.708 69.655 224.86 69.655H215.772Z" fill="#5E5A4B"/>
<path d="M208.157 40.791L205.085 38.295L209.501 31.895H206.045V24.855H212.445V30.359C212.445 32.215 212.317 34.199 211.101 35.863L208.157 40.791Z" fill="#5E5A4B"/>
<path d="M177.374 69.655V24.855H183.006L194.398 54.871V24.855H200.35V69.655H194.718L183.326 40.343V69.655H177.374Z" fill="#5E5A4B"/>
<path d="M149.486 69.975C136.11 69.975 127.854 61.399 127.854 47.703V46.807C127.854 33.111 136.11 24.535 149.486 24.535H150.19C163.566 24.535 171.822 33.111 171.822 46.807V47.703C171.822 61.399 163.566 69.975 150.19 69.975H149.486ZM150.126 64.279C160.174 64.279 165.486 57.815 165.486 47.639V46.871C165.486 36.695 160.174 30.231 150.126 30.231H149.55C139.502 30.231 134.19 36.695 134.19 46.871V47.639C134.19 57.815 139.502 64.279 149.55 64.279H150.126Z" fill="#5E5A4B"/>
<path d="M105.21 69.655V63.895H113.146C116.538 63.895 118.266 62.295 118.266 59.607V58.967C118.266 55.831 115.642 52.631 112.698 49.175C109.178 44.951 105.146 40.087 105.146 34.903V34.007C105.146 28.823 108.666 24.855 115.13 24.855H123.642V30.615H115.898C113.146 30.615 111.354 32.151 111.354 34.647V35.159C111.354 37.911 114.042 41.047 116.922 44.439C120.442 48.599 124.474 53.463 124.474 58.839V59.735C124.474 65.559 121.146 69.655 114.298 69.655H105.21Z" fill="#5E5A4B"/>
<path d="M94.249 69.655V24.855H100.457V69.655H94.249Z" fill="#5E5A4B"/>
<path d="M73.249 69.655V24.855H79.457V63.959H90.401V69.655H73.249Z" fill="#5E5A4B"/>
<path d="M52.249 69.655V24.855H58.457V63.959H69.401V69.655H52.249Z" fill="#5E5A4B"/>
<path d="M23.5 69.655L33.1 24.855H39.436L48.524 69.655H42.188L40.524 61.207H31.5L29.708 69.655H23.5ZM32.332 55.767H39.756L36.172 35.159L32.332 55.767Z" fill="#5E5A4B"/>
<path d="M217.331 110.371C223.064 110.371 225.157 107.368 225.157 101.271V94.992C225.157 89.259 223.064 85.983 217.422 85.983H212.963V110.371H217.331ZM204.136 141.675V77.975H218.241C228.433 77.975 233.984 83.526 233.984 93.809V102.181C233.984 113.01 228.342 118.47 218.241 118.47H212.963V141.675H204.136Z" fill="#5E5A4B"/>
<path d="M195.034 141.675H186.207V94.173L163.184 133.758H156.632L133.427 93.991V141.675H124.6V77.975H133.336L159.999 123.475L186.207 77.975H195.034V141.675Z" fill="#5E5A4B"/>
<path d="M83.7222 141.675L97.3722 77.975H106.381L119.303 141.675H110.294L107.928 129.663H95.0972L92.5492 141.675H83.7222ZM96.2802 121.928H106.836L101.74 92.626L96.2802 121.928Z" fill="#5E5A4B"/>
<path d="M53.522 85.983V77.975H86.009V85.983H74.179V141.675H65.352V85.983H53.522Z" fill="#5E5A4B"/>
<path d="M23.591 141.675V133.485H34.875C39.698 133.485 42.155 131.21 42.155 127.388V126.478C42.155 122.019 38.424 117.469 34.238 112.555C29.233 106.549 23.5 99.633 23.5 92.262V90.988C23.5 83.617 28.505 77.975 37.696 77.975H49.799V86.165H38.788C34.875 86.165 32.327 88.349 32.327 91.898V92.626C32.327 96.539 36.149 100.998 40.244 105.821C45.249 111.736 50.982 118.652 50.982 126.296V127.57C50.982 135.851 46.25 141.675 36.513 141.675H23.591Z" fill="#5E5A4B"/>
<path d="M216.596 184.22V149.92H220.908L229.63 172.901V149.92H234.187V184.22H229.875L221.153 161.778V184.22H216.596Z" fill="#5E5A4B"/>
<path d="M195.245 184.465C185.004 184.465 178.683 177.899 178.683 167.413V166.727C178.683 156.241 185.004 149.675 195.245 149.675H195.784C206.025 149.675 212.346 156.241 212.346 166.727V167.413C212.346 177.899 206.025 184.465 195.784 184.465H195.245ZM195.735 180.104C203.428 180.104 207.495 175.155 207.495 167.364V166.776C207.495 158.985 203.428 154.036 195.735 154.036H195.294C187.601 154.036 183.534 158.985 183.534 166.776V167.364C183.534 175.155 187.601 180.104 195.294 180.104H195.735Z" fill="#5E5A4B"/>
<path d="M169.654 184.22V149.92H174.407V184.22H169.654Z" fill="#5E5A4B"/>
<path d="M148.943 154.232V149.92H166.436V154.232H160.066V184.22H155.313V154.232H148.943Z" fill="#5E5A4B"/>
<path d="M137.464 184.22C127.321 184.22 121.931 176.821 121.931 167.609V166.531C121.931 157.319 127.321 149.92 137.464 149.92H147.215V154.232H137.905C130.604 154.232 126.782 159.426 126.782 166.776V167.364C126.782 174.763 130.604 179.908 137.905 179.908H147.215V184.22H137.464Z" fill="#5E5A4B"/>
<path d="M105.868 184.22V149.92H119.588V154.232H110.572V164.081H117.726V168.393H110.572V179.908H119.588V184.22H105.868Z" fill="#5E5A4B"/>
<path d="M89.7896 184.22V149.92H94.5426V179.859H102.922V184.22H89.7896Z" fill="#5E5A4B"/>
<path d="M73.7114 184.22V149.92H78.4644V179.859H86.8434V184.22H73.7114Z" fill="#5E5A4B"/>
<path d="M59.528 184.465C54.481 184.465 51.835 181.672 51.835 176.086V158.005C51.835 152.468 54.481 149.675 59.528 149.675H61.439C66.486 149.675 69.132 152.468 69.132 158.005V176.086C69.132 181.672 66.486 184.465 61.439 184.465H59.528ZM60.851 180.104C63.203 180.104 64.379 178.781 64.379 175.792V158.397C64.379 155.408 63.203 154.085 60.851 154.085H60.116C57.764 154.085 56.588 155.408 56.588 158.397V175.792C56.588 178.781 57.764 180.104 60.116 180.104H60.851Z" fill="#5E5A4B"/>
<path d="M39.033 184.22C28.89 184.22 23.5 176.821 23.5 167.609V166.531C23.5 157.319 28.89 149.92 39.033 149.92H48.784V154.232H39.474C32.173 154.232 28.351 159.426 28.351 166.776V167.364C28.351 174.763 32.173 179.908 39.474 179.908H48.784V184.22H39.033Z" fill="#5E5A4B"/>
</svg>
