<svg width="260" height="210" viewBox="0 0 260 210" fill="none" xmlns="http://www.w3.org/2000/svg">
<mask id="path-1-inside-1_67_593" fill="white">
<path d="M1.69421 209L1.69421 201.568L1.5 201.453C5.45749 201.371 8.63805 198.088 8.63805 194.038C8.63805 189.988 5.45749 186.705 1.5 186.623L1.5 179.2C5.45749 179.117 8.63805 175.834 8.63805 171.785C8.63805 167.735 5.45749 164.452 1.5 164.37L1.5 156.946C5.45749 156.864 8.63805 153.581 8.63805 149.531C8.63805 145.482 5.45749 142.199 1.5 142.116L1.5 134.693C5.45749 134.611 8.63805 131.328 8.63805 127.278C8.63804 123.228 5.45749 119.946 1.5 119.863L1.5 112.44C5.45749 112.357 8.63804 109.075 8.63804 105.025C8.63804 100.975 5.45749 97.6922 1.5 97.6097L1.49999 90.1865C5.45748 90.104 8.63804 86.8213 8.63804 82.7715C8.63804 78.7216 5.45748 75.4389 1.49999 75.3564L1.49999 67.9332C5.45748 67.8507 8.63804 64.5679 8.63804 60.5181C8.63804 56.4683 5.45748 53.1856 1.49999 53.1031L1.49999 45.6799C5.45748 45.5974 8.63804 42.3147 8.63804 38.2648C8.63804 34.215 5.45748 30.9323 1.49999 30.8498L1.49999 23.4265L1.64567 23.4265C5.6679 23.4265 8.92939 20.1026 8.92939 16.0033C8.92939 11.904 5.6679 8.58002 1.64567 8.58002L1.49999 8.58002L1.49999 1.00002L8.2334 1.00001C8.31433 5.03332 11.5353 8.27483 15.509 8.27483C19.4827 8.27483 22.7037 5.03332 22.7846 1.00001L28.9192 1.00001L28.9192 1.14848C28.9192 5.24777 32.1807 8.57176 36.2029 8.57176C40.2251 8.57176 43.4866 5.24777 43.4866 1.14848L43.4866 1.00001L49.6211 1.00001L49.6211 1.14848C49.6211 5.24777 52.8826 8.57176 56.9048 8.57176C60.927 8.57176 64.1886 5.24777 64.1886 1.14848L64.1886 1.00001L70.3231 1.00001L70.3231 1.14848C70.3231 5.24777 73.5846 8.57176 77.6068 8.57176C81.629 8.57176 84.8905 5.24777 84.8905 1.14848L84.8905 1.00001L91.025 1.00001L91.025 1.14848C91.025 5.24777 94.2865 8.57176 98.3088 8.57176C102.331 8.57176 105.592 5.24777 105.592 1.14848L105.592 1.00001L111.727 1.00001L111.727 1.14848C111.727 5.24777 114.989 8.57176 119.011 8.57176C123.033 8.57176 126.294 5.24777 126.294 1.14848L126.294 1.00001L132.429 1.00001L132.429 1.14848C132.429 5.24777 135.69 8.57176 139.713 8.57176C143.735 8.57176 146.996 5.24777 146.996 1.14848L146.996 1.00001L153.131 1.00001L153.131 1.14848C153.131 5.24777 156.392 8.57176 160.415 8.57176C164.437 8.57175 167.698 5.24776 167.698 1.14848L167.698 1.00001L173.833 1.00001L173.833 1.14848C173.833 5.24776 177.094 8.57175 181.117 8.57175C185.139 8.57175 188.4 5.24776 188.4 1.14848L188.4 1.00001L194.535 1.00001L194.535 1.14847C194.535 5.24776 197.796 8.57175 201.819 8.57175C205.841 8.57175 209.102 5.24776 209.102 1.14847L209.102 1.00001L215.237 1.00001L215.237 1.14847C215.237 5.24776 218.498 8.57175 222.521 8.57175C226.543 8.57175 229.804 5.24776 229.804 1.14847L229.804 1.00001L235.641 1.00001L235.641 1.14847C235.641 5.24776 238.902 8.57175 242.924 8.57175C246.947 8.57175 250.208 5.24776 250.208 1.14847L250.208 1L257.5 1L257.5 8.58001C253.543 8.66248 250.362 11.9452 250.362 15.995C250.362 20.0448 253.543 23.3275 257.5 23.41L257.5 30.8333L257.354 30.8333C253.332 30.8333 250.071 34.1573 250.071 38.2566C250.071 42.3559 253.332 45.6798 257.354 45.6798L257.5 45.6798L257.5 53.1031L257.354 53.1031C253.332 53.1031 250.071 56.4271 250.071 60.5264C250.071 64.6257 253.332 67.9496 257.354 67.9496L257.5 67.9496L257.5 75.3729L257.354 75.3729C253.332 75.3729 250.071 78.6969 250.071 82.7962C250.071 86.8955 253.332 90.2194 257.354 90.2194L257.5 90.2194L257.5 97.6427L257.354 97.6427C253.332 97.6427 250.071 100.967 250.071 105.066C250.071 109.165 253.332 112.489 257.354 112.489L257.5 112.489L257.5 119.913L257.354 119.913C253.332 119.913 250.071 123.237 250.071 127.336C250.071 131.435 253.332 134.759 257.354 134.759L257.5 134.759L257.5 142.182L257.354 142.182C253.332 142.182 250.071 145.506 250.071 149.606C250.071 153.705 253.332 157.029 257.354 157.029L257.5 157.029L257.5 164.452L257.354 164.452C253.332 164.452 250.071 167.776 250.071 171.875C250.071 175.975 253.332 179.299 257.354 179.299L257.5 179.299L257.5 186.722L257.354 186.722C253.332 186.722 250.071 190.046 250.071 194.145C250.071 198.244 253.332 201.568 257.354 201.568L257.5 201.568L257.5 209L250.216 209C250.216 204.901 246.955 201.577 242.933 201.577C238.91 201.577 235.649 204.901 235.649 209L229.845 209C229.845 204.901 226.583 201.577 222.561 201.577C218.539 201.577 215.277 204.901 215.277 209L209.159 209C209.159 204.901 205.897 201.577 201.875 201.577C197.853 201.577 194.592 204.901 194.592 209L188.473 209C188.473 204.901 185.212 201.577 181.189 201.577C177.167 201.577 173.906 204.901 173.906 209L167.787 209C167.787 204.901 164.526 201.577 160.504 201.577C156.481 201.577 153.22 204.901 153.22 209L147.102 209C147.102 204.901 143.84 201.577 139.818 201.577C135.796 201.577 132.534 204.901 132.534 209L126.416 209C126.416 204.901 123.154 201.577 119.132 201.577C115.11 201.577 111.848 204.901 111.848 209L105.73 209C105.73 204.901 102.469 201.577 98.4463 201.577C94.4241 201.577 91.1626 204.901 91.1626 209L85.0443 209C85.0443 204.901 81.7828 201.577 77.7606 201.577C73.7383 201.577 70.4768 204.901 70.4768 209L64.3585 209C64.3585 204.901 61.097 201.577 57.0748 201.577C53.0526 201.577 49.7911 204.901 49.7911 209L43.6727 209C43.6727 204.901 40.4113 201.577 36.389 201.577C32.3668 201.577 29.1053 204.901 29.1053 209L22.9708 209L22.9708 208.999C22.9789 208.901 22.987 208.802 22.987 208.703C22.987 204.604 19.7255 201.28 15.7032 201.28C11.681 201.28 8.41952 204.604 8.41952 208.703C8.41952 208.802 8.43573 208.901 8.43573 209L1.69421 209Z"/>
</mask>
<path d="M235.939 1.00001L236.439 1L236.439 0.500005L235.939 0.500005L235.939 1.00001ZM235.649 209L235.649 209.5L235.963 209.5L235.963 209L235.963 208.5L235.649 208.5L235.649 209ZM235.939 1.14847L236.439 1.14847L236.439 1L235.939 1.00001L235.439 1.00001L235.439 1.14847L235.939 1.14847ZM235.939 1.00001L235.939 0.500005L235.641 0.500005L235.641 1.00001L235.641 1.50001L235.939 1.50001L235.939 1.00001ZM1.69421 201.568L2.69421 201.568L2.69421 201L2.20528 200.709L1.69421 201.568ZM1.69421 209L0.694214 209L0.694214 210L1.69421 210L1.69421 209ZM8.43573 209L8.43573 210L9.43573 210L9.43573 209L8.43573 209ZM22.9708 208.999L23.9675 209.081L23.9675 209.081L22.9708 208.999ZM22.9708 209L21.9741 208.918L21.885 210L22.9708 210L22.9708 209ZM29.1053 209L29.1053 210L30.1053 210L30.1053 209L29.1053 209ZM43.6727 209L42.6727 209L42.6727 210L43.6727 210L43.6727 209ZM49.7911 209L49.7911 210L50.7911 210L50.7911 209L49.7911 209ZM64.3585 209L63.3585 209L63.3585 210L64.3585 210L64.3585 209ZM70.4768 209L70.4768 210L71.4768 210L71.4768 209L70.4768 209ZM85.0443 209L84.0443 209L84.0443 210L85.0443 210L85.0443 209ZM91.1626 209L91.1626 210L92.1626 210L92.1626 209L91.1626 209ZM105.73 209L104.73 209L104.73 210L105.73 210L105.73 209ZM111.848 209L111.848 210L112.848 210L112.848 209L111.848 209ZM126.416 209L125.416 209L125.416 210L126.416 210L126.416 209ZM132.534 209L132.534 210L133.534 210L133.534 209L132.534 209ZM147.102 209L146.102 209L146.102 210L147.102 210L147.102 209ZM153.22 209L153.22 210L154.22 210L154.22 209L153.22 209ZM167.787 209L166.787 209L166.787 210L167.787 210L167.787 209ZM173.906 209L173.906 210L174.906 210L174.906 209L173.906 209ZM188.473 209L187.473 209L187.473 210L188.473 210L188.473 209ZM194.592 209L194.592 210L195.592 210L195.592 209L194.592 209ZM209.159 209L208.159 209L208.159 210L209.159 210L209.159 209ZM215.277 209L215.277 210L216.277 210L216.277 209L215.277 209ZM229.845 209L228.845 209L228.845 210L229.845 210L229.845 209ZM235.649 209L235.649 210L236.649 210L236.649 209L235.649 209ZM250.216 209L249.216 209L249.216 210L250.216 210L250.216 209ZM257.5 209L257.5 210L258.5 210L258.5 209L257.5 209ZM257.5 201.568L258.5 201.568L258.5 200.568L257.5 200.568L257.5 201.568ZM257.5 186.722L257.5 187.722L258.5 187.722L258.5 186.722L257.5 186.722ZM257.5 179.299L258.5 179.299L258.5 178.299L257.5 178.299L257.5 179.299ZM257.5 164.452L257.5 165.452L258.5 165.452L258.5 164.452L257.5 164.452ZM257.5 157.029L258.5 157.029L258.5 156.029L257.5 156.029L257.5 157.029ZM257.5 142.182L257.5 143.182L258.5 143.182L258.5 142.182L257.5 142.182ZM257.5 134.759L258.5 134.759L258.5 133.759L257.5 133.759L257.5 134.759ZM257.5 119.913L257.5 120.913L258.5 120.913L258.5 119.913L257.5 119.913ZM257.5 112.489L258.5 112.489L258.5 111.489L257.5 111.489L257.5 112.489ZM257.5 97.6427L257.5 98.6427L258.5 98.6427L258.5 97.6427L257.5 97.6427ZM257.5 90.2194L258.5 90.2194L258.5 89.2194L257.5 89.2194L257.5 90.2194ZM257.5 75.3729L257.5 76.3729L258.5 76.3729L258.5 75.3729L257.5 75.3729ZM257.5 67.9496L258.5 67.9496L258.5 66.9496L257.5 66.9496L257.5 67.9496ZM257.5 53.1031L257.5 54.1031L258.5 54.1031L258.5 53.1031L257.5 53.1031ZM257.5 45.6798L258.5 45.6798L258.5 44.6798L257.5 44.6798L257.5 45.6798ZM257.5 30.8333L257.5 31.8333L258.5 31.8333L258.5 30.8333L257.5 30.8333ZM257.5 23.41L258.5 23.41L258.5 22.4307L257.521 22.4102L257.5 23.41ZM257.5 8.58001L257.521 9.57979L258.5 9.55938L258.5 8.58001L257.5 8.58001ZM257.5 1L258.5 1L258.5 4.02496e-06L257.5 4.06867e-06L257.5 1ZM250.208 1L250.208 4.38741e-06L249.208 4.43112e-06L249.208 1L250.208 1ZM235.641 1.00001L236.641 1L236.641 4.98046e-06L235.641 5.02417e-06L235.641 1.00001ZM229.804 1.00001L229.804 5.27929e-06L228.804 5.323e-06L228.804 1.00001L229.804 1.00001ZM215.237 1.00001L216.237 1.00001L216.237 5.87234e-06L215.237 5.91606e-06L215.237 1.00001ZM209.102 1.00001L209.102 6.1842e-06L208.102 6.22792e-06L208.102 1.00001L209.102 1.00001ZM194.535 1.00001L195.535 1.00001L195.535 6.77726e-06L194.535 6.82097e-06L194.535 1.00001ZM188.4 1.00001L188.4 7.08911e-06L187.4 7.13283e-06L187.4 1.00001L188.4 1.00001ZM173.833 1.00001L174.833 1.00001L174.833 7.68217e-06L173.833 7.72588e-06L173.833 1.00001ZM167.698 1.00001L167.698 7.99403e-06L166.698 8.03774e-06L166.698 1.00001L167.698 1.00001ZM153.131 1.00001L154.131 1.00001L154.131 8.58708e-06L153.131 8.63079e-06L153.131 1.00001ZM146.996 1.00001L146.996 8.89894e-06L145.996 8.94265e-06L145.996 1.00001L146.996 1.00001ZM132.429 1.00001L133.429 1.00001L133.429 9.49199e-06L132.429 9.5357e-06L132.429 1.00001ZM126.294 1.00001L126.294 9.80385e-06L125.294 9.84756e-06L125.294 1.00001L126.294 1.00001ZM111.727 1.00001L112.727 1.00001L112.727 1.03969e-05L111.727 1.04406e-05L111.727 1.00001ZM105.592 1.00001L105.592 1.07088e-05L104.592 1.07525e-05L104.592 1.00001L105.592 1.00001ZM91.025 1.00001L92.025 1.00001L92.025 1.13018e-05L91.025 1.13455e-05L91.025 1.00001ZM84.8905 1.00001L84.8905 1.16137e-05L83.8905 1.16574e-05L83.8905 1.00001L84.8905 1.00001ZM70.3231 1.00001L71.3231 1.00001L71.3231 1.22067e-05L70.3231 1.22504e-05L70.3231 1.00001ZM64.1886 1.00001L64.1886 1.25186e-05L63.1886 1.25623e-05L63.1886 1.00001L64.1886 1.00001ZM49.6211 1.00001L50.6211 1.00001L50.6211 1.31116e-05L49.6211 1.31553e-05L49.6211 1.00001ZM43.4866 1.00001L43.4866 1.34235e-05L42.4866 1.34672e-05L42.4866 1.00001L43.4866 1.00001ZM28.9192 1.00001L29.9192 1.00001L29.9192 1.40165e-05L28.9192 1.40603e-05L28.9192 1.00001ZM22.7846 1.00001L22.7846 1.43284e-05L21.8045 1.43713e-05L21.7848 0.979949L22.7846 1.00001ZM8.2334 1.00001L9.2332 0.97995L9.21354 1.49216e-05L8.2334 1.49645e-05L8.2334 1.00001ZM1.49999 1.00002L1.49999 1.52588e-05L0.499991 1.53025e-05L0.499991 1.00002L1.49999 1.00002ZM1.49999 8.58002L0.499991 8.58002L0.499991 9.58002L1.49999 9.58002L1.49999 8.58002ZM1.49999 23.4265L1.49999 22.4265L0.499992 22.4265L0.499992 23.4265L1.49999 23.4265ZM1.49999 30.8498L0.499992 30.8498L0.499992 31.8292L1.47916 31.8496L1.49999 30.8498ZM1.49999 45.6799L1.47916 44.6801L0.499993 44.7005L0.499993 45.6799L1.49999 45.6799ZM1.49999 53.1031L0.499993 53.1031L0.499993 54.0825L1.47916 54.1029L1.49999 53.1031ZM1.49999 67.9332L1.47916 66.9334L0.499994 66.9538L0.499994 67.9332L1.49999 67.9332ZM1.49999 75.3564L0.499994 75.3564L0.499994 76.3358L1.47916 76.3562L1.49999 75.3564ZM1.49999 90.1865L1.47916 89.1867L0.499995 89.2071L0.499995 90.1865L1.49999 90.1865ZM1.5 97.6097L0.499995 97.6097L0.499995 98.5891L1.47916 98.6095L1.5 97.6097ZM1.5 112.44L1.47916 111.44L0.499996 111.46L0.499996 112.44L1.5 112.44ZM1.5 119.863L0.499996 119.863L0.499996 120.842L1.47916 120.863L1.5 119.863ZM1.5 134.693L1.47916 133.693L0.499997 133.714L0.499997 134.693L1.5 134.693ZM1.5 142.116L0.499997 142.116L0.499997 143.096L1.47916 143.116L1.5 142.116ZM1.5 156.946L1.47916 155.947L0.499998 155.967L0.499998 156.946L1.5 156.946ZM1.5 164.37L0.499998 164.37L0.499998 165.349L1.47916 165.369L1.5 164.37ZM1.5 179.2L1.47916 178.2L0.499999 178.22L0.499999 179.2L1.5 179.2ZM1.5 186.623L0.499999 186.623L0.499999 187.602L1.47916 187.623L1.5 186.623ZM1.5 201.453L1.47916 200.453L-2.01569 200.526L0.988935 202.313L1.5 201.453ZM1.69421 201.568L0.694214 201.568L0.694214 209L1.69421 209L2.69421 209L2.69421 201.568L1.69421 201.568ZM1.69421 209L1.69421 210L8.43573 210L8.43573 209L8.43573 208L1.69421 208L1.69421 209ZM8.43573 209L9.43573 209C9.43573 208.903 9.42778 208.812 9.42429 208.77C9.42213 208.743 9.42097 208.729 9.42018 208.716C9.41945 208.704 9.41952 208.701 9.41952 208.703L8.41952 208.703L7.41952 208.703C7.41952 208.8 7.42748 208.891 7.43096 208.933C7.43313 208.96 7.43429 208.974 7.43508 208.987C7.4358 208.999 7.43573 209.002 7.43573 209L8.43573 209ZM8.41952 208.703L9.41952 208.703C9.41952 205.138 12.2511 202.28 15.7032 202.28L15.7032 201.28L15.7032 200.28C11.1109 200.28 7.41952 204.069 7.41952 208.703L8.41952 208.703ZM15.7032 201.28L15.7032 202.28C19.1554 202.28 21.987 205.138 21.987 208.703L22.987 208.703L23.987 208.703C23.987 204.069 20.2956 200.28 15.7032 200.28L15.7032 201.28ZM22.987 208.703L21.987 208.703C21.987 208.754 21.9828 208.812 21.9742 208.918L22.9708 208.999L23.9675 209.081C23.975 208.989 23.987 208.849 23.987 208.703L22.987 208.703ZM22.9708 208.999L21.9742 208.917L21.9741 208.918L22.9708 209L23.9674 209.082L23.9675 209.081L22.9708 208.999ZM22.9708 209L22.9708 210L29.1053 210L29.1053 209L29.1053 208L22.9708 208L22.9708 209ZM29.1053 209L30.1053 209C30.1053 205.435 32.9369 202.577 36.389 202.577L36.389 201.577L36.389 200.577C31.7967 200.577 28.1053 204.366 28.1053 209L29.1053 209ZM36.389 201.577L36.389 202.577C39.8412 202.577 42.6727 205.435 42.6727 209L43.6727 209L44.6727 209C44.6727 204.366 40.9813 200.577 36.389 200.577L36.389 201.577ZM43.6727 209L43.6727 210L49.7911 210L49.7911 209L49.7911 208L43.6727 208L43.6727 209ZM49.7911 209L50.7911 209C50.7911 205.435 53.6226 202.577 57.0748 202.577L57.0748 201.577L57.0748 200.577C52.4825 200.577 48.7911 204.366 48.7911 209L49.7911 209ZM57.0748 201.577L57.0748 202.577C60.5269 202.577 63.3585 205.435 63.3585 209L64.3585 209L65.3585 209C65.3585 204.366 61.6671 200.577 57.0748 200.577L57.0748 201.577ZM64.3585 209L64.3585 210L70.4768 210L70.4768 209L70.4768 208L64.3585 208L64.3585 209ZM70.4768 209L71.4768 209C71.4768 205.435 74.3084 202.577 77.7606 202.577L77.7606 201.577L77.7606 200.577C73.1683 200.577 69.4768 204.366 69.4768 209L70.4768 209ZM77.7606 201.577L77.7606 202.577C81.2127 202.577 84.0443 205.435 84.0443 209L85.0443 209L86.0443 209C86.0443 204.366 82.3529 200.577 77.7606 200.577L77.7606 201.577ZM85.0443 209L85.0443 210L91.1626 210L91.1626 209L91.1626 208L85.0443 208L85.0443 209ZM91.1626 209L92.1626 209C92.1626 205.435 94.9942 202.577 98.4463 202.577L98.4463 201.577L98.4463 200.577C93.854 200.577 90.1626 204.366 90.1626 209L91.1626 209ZM98.4463 201.577L98.4463 202.577C101.898 202.577 104.73 205.435 104.73 209L105.73 209L106.73 209C106.73 204.366 103.039 200.577 98.4463 200.577L98.4463 201.577ZM105.73 209L105.73 210L111.848 210L111.848 209L111.848 208L105.73 208L105.73 209ZM111.848 209L112.848 209C112.848 205.435 115.68 202.577 119.132 202.577L119.132 201.577L119.132 200.577C114.54 200.577 110.848 204.366 110.848 209L111.848 209ZM119.132 201.577L119.132 202.577C122.584 202.577 125.416 205.435 125.416 209L126.416 209L127.416 209C127.416 204.366 123.724 200.577 119.132 200.577L119.132 201.577ZM126.416 209L126.416 210L132.534 210L132.534 209L132.534 208L126.416 208L126.416 209ZM132.534 209L133.534 209C133.534 205.435 136.366 202.577 139.818 202.577L139.818 201.577L139.818 200.577C135.226 200.577 131.534 204.366 131.534 209L132.534 209ZM139.818 201.577L139.818 202.577C143.27 202.577 146.102 205.435 146.102 209L147.102 209L148.102 209C148.102 204.366 144.41 200.577 139.818 200.577L139.818 201.577ZM147.102 209L147.102 210L153.22 210L153.22 209L153.22 208L147.102 208L147.102 209ZM153.22 209L154.22 209C154.22 205.435 157.052 202.577 160.504 202.577L160.504 201.577L160.504 200.577C155.911 200.577 152.22 204.366 152.22 209L153.22 209ZM160.504 201.577L160.504 202.577C163.956 202.577 166.787 205.435 166.787 209L167.787 209L168.787 209C168.787 204.366 165.096 200.577 160.504 200.577L160.504 201.577ZM167.787 209L167.787 210L173.906 210L173.906 209L173.906 208L167.787 208L167.787 209ZM173.906 209L174.906 209C174.906 205.435 177.737 202.577 181.189 202.577L181.189 201.577L181.189 200.577C176.597 200.577 172.906 204.366 172.906 209L173.906 209ZM181.189 201.577L181.189 202.577C184.642 202.577 187.473 205.435 187.473 209L188.473 209L189.473 209C189.473 204.366 185.782 200.577 181.189 200.577L181.189 201.577ZM188.473 209L188.473 210L194.592 210L194.592 209L194.592 208L188.473 208L188.473 209ZM194.592 209L195.592 209C195.592 205.435 198.423 202.577 201.875 202.577L201.875 201.577L201.875 200.577C197.283 200.577 193.592 204.366 193.592 209L194.592 209ZM201.875 201.577L201.875 202.577C205.327 202.577 208.159 205.435 208.159 209L209.159 209L210.159 209C210.159 204.366 206.468 200.577 201.875 200.577L201.875 201.577ZM209.159 209L209.159 210L215.277 210L215.277 209L215.277 208L209.159 208L209.159 209ZM215.277 209L216.277 209C216.277 205.435 219.109 202.577 222.561 202.577L222.561 201.577L222.561 200.577C217.969 200.577 214.277 204.366 214.277 209L215.277 209ZM222.561 201.577L222.561 202.577C226.013 202.577 228.845 205.435 228.845 209L229.845 209L230.845 209C230.845 204.366 227.153 200.577 222.561 200.577L222.561 201.577ZM229.845 209L229.845 210L235.649 210L235.649 209L235.649 208L229.845 208L229.845 209ZM235.649 209L236.649 209C236.649 205.435 239.48 202.577 242.933 202.577L242.933 201.577L242.933 200.577C238.34 200.577 234.649 204.366 234.649 209L235.649 209ZM242.933 201.577L242.933 202.577C246.385 202.577 249.216 205.435 249.216 209L250.216 209L251.216 209C251.216 204.366 247.525 200.577 242.933 200.577L242.933 201.577ZM250.216 209L250.216 210L257.5 210L257.5 209L257.5 208L250.216 208L250.216 209ZM257.5 209L258.5 209L258.5 201.568L257.5 201.568L256.5 201.568L256.5 209L257.5 209ZM257.5 201.568L257.5 200.568L257.354 200.568L257.354 201.568L257.354 202.568L257.5 202.568L257.5 201.568ZM257.354 201.568L257.354 200.568C253.902 200.568 251.071 197.71 251.071 194.145L250.071 194.145L249.071 194.145C249.071 198.779 252.762 202.568 257.354 202.568L257.354 201.568ZM250.071 194.145L251.071 194.145C251.071 190.58 253.902 187.722 257.354 187.722L257.354 186.722L257.354 185.722C252.762 185.722 249.071 189.512 249.071 194.145L250.071 194.145ZM257.354 186.722L257.354 187.722L257.5 187.722L257.5 186.722L257.5 185.722L257.354 185.722L257.354 186.722ZM257.5 186.722L258.5 186.722L258.5 179.299L257.5 179.299L256.5 179.299L256.5 186.722L257.5 186.722ZM257.5 179.299L257.5 178.299L257.354 178.299L257.354 179.299L257.354 180.299L257.5 180.299L257.5 179.299ZM257.354 179.299L257.354 178.299C253.902 178.299 251.071 175.44 251.071 171.875L250.071 171.875L249.071 171.875C249.071 176.509 252.762 180.299 257.354 180.299L257.354 179.299ZM250.071 171.875L251.071 171.875C251.071 168.31 253.902 165.452 257.354 165.452L257.354 164.452L257.354 163.452C252.762 163.452 249.071 167.242 249.071 171.875L250.071 171.875ZM257.354 164.452L257.354 165.452L257.5 165.452L257.5 164.452L257.5 163.452L257.354 163.452L257.354 164.452ZM257.5 164.452L258.5 164.452L258.5 157.029L257.5 157.029L256.5 157.029L256.5 164.452L257.5 164.452ZM257.5 157.029L257.5 156.029L257.354 156.029L257.354 157.029L257.354 158.029L257.5 158.029L257.5 157.029ZM257.354 157.029L257.354 156.029C253.902 156.029 251.071 153.171 251.071 149.606L250.071 149.606L249.071 149.606C249.071 154.239 252.762 158.029 257.354 158.029L257.354 157.029ZM250.071 149.606L251.071 149.606C251.071 146.041 253.902 143.182 257.354 143.182L257.354 142.182L257.354 141.182C252.762 141.182 249.071 144.972 249.071 149.606L250.071 149.606ZM257.354 142.182L257.354 143.182L257.5 143.182L257.5 142.182L257.5 141.182L257.354 141.182L257.354 142.182ZM257.5 142.182L258.5 142.182L258.5 134.759L257.5 134.759L256.5 134.759L256.5 142.182L257.5 142.182ZM257.5 134.759L257.5 133.759L257.354 133.759L257.354 134.759L257.354 135.759L257.5 135.759L257.5 134.759ZM257.354 134.759L257.354 133.759C253.902 133.759 251.071 130.901 251.071 127.336L250.071 127.336L249.071 127.336C249.071 131.969 252.762 135.759 257.354 135.759L257.354 134.759ZM250.071 127.336L251.071 127.336C251.071 123.771 253.902 120.913 257.354 120.913L257.354 119.913L257.354 118.913C252.762 118.913 249.071 122.702 249.071 127.336L250.071 127.336ZM257.354 119.913L257.354 120.913L257.5 120.913L257.5 119.913L257.5 118.913L257.354 118.913L257.354 119.913ZM257.5 119.913L258.5 119.913L258.5 112.489L257.5 112.489L256.5 112.489L256.5 119.913L257.5 119.913ZM257.5 112.489L257.5 111.489L257.354 111.489L257.354 112.489L257.354 113.489L257.5 113.489L257.5 112.489ZM257.354 112.489L257.354 111.489C253.902 111.489 251.071 108.631 251.071 105.066L250.071 105.066L249.071 105.066C249.071 109.7 252.762 113.489 257.354 113.489L257.354 112.489ZM250.071 105.066L251.071 105.066C251.071 101.501 253.902 98.6427 257.354 98.6427L257.354 97.6427L257.354 96.6427C252.762 96.6427 249.071 100.432 249.071 105.066L250.071 105.066ZM257.354 97.6427L257.354 98.6427L257.5 98.6427L257.5 97.6427L257.5 96.6427L257.354 96.6427L257.354 97.6427ZM257.5 97.6427L258.5 97.6427L258.5 90.2194L257.5 90.2194L256.5 90.2194L256.5 97.6427L257.5 97.6427ZM257.5 90.2194L257.5 89.2194L257.354 89.2194L257.354 90.2194L257.354 91.2194L257.5 91.2194L257.5 90.2194ZM257.354 90.2194L257.354 89.2194C253.902 89.2194 251.071 86.3612 251.071 82.7962L250.071 82.7962L249.071 82.7962C249.071 87.4298 252.762 91.2194 257.354 91.2194L257.354 90.2194ZM250.071 82.7962L251.071 82.7962C251.071 79.2312 253.902 76.3729 257.354 76.3729L257.354 75.3729L257.354 74.3729C252.762 74.3729 249.071 78.1626 249.071 82.7962L250.071 82.7962ZM257.354 75.3729L257.354 76.3729L257.5 76.3729L257.5 75.3729L257.5 74.3729L257.354 74.3729L257.354 75.3729ZM257.5 75.3729L258.5 75.3729L258.5 67.9496L257.5 67.9496L256.5 67.9496L256.5 75.3729L257.5 75.3729ZM257.5 67.9496L257.5 66.9496L257.354 66.9496L257.354 67.9496L257.354 68.9496L257.5 68.9496L257.5 67.9496ZM257.354 67.9496L257.354 66.9496C253.902 66.9496 251.071 64.0913 251.071 60.5264L250.071 60.5264L249.071 60.5264C249.071 65.16 252.762 68.9496 257.354 68.9496L257.354 67.9496ZM250.071 60.5264L251.071 60.5264C251.071 56.9614 253.902 54.1031 257.354 54.1031L257.354 53.1031L257.354 52.1031C252.762 52.1031 249.071 55.8928 249.071 60.5264L250.071 60.5264ZM257.354 53.1031L257.354 54.1031L257.5 54.1031L257.5 53.1031L257.5 52.1031L257.354 52.1031L257.354 53.1031ZM257.5 53.1031L258.5 53.1031L258.5 45.6798L257.5 45.6798L256.5 45.6798L256.5 53.1031L257.5 53.1031ZM257.5 45.6798L257.5 44.6798L257.354 44.6798L257.354 45.6798L257.354 46.6798L257.5 46.6798L257.5 45.6798ZM257.354 45.6798L257.354 44.6798C253.902 44.6798 251.071 41.8216 251.071 38.2566L250.071 38.2566L249.071 38.2566C249.071 42.8902 252.762 46.6798 257.354 46.6798L257.354 45.6798ZM250.071 38.2566L251.071 38.2566C251.071 34.6916 253.902 31.8333 257.354 31.8333L257.354 30.8333L257.354 29.8333C252.762 29.8333 249.071 33.623 249.071 38.2566L250.071 38.2566ZM257.354 30.8333L257.354 31.8333L257.5 31.8333L257.5 30.8333L257.5 29.8333L257.354 29.8333L257.354 30.8333ZM257.5 30.8333L258.5 30.8333L258.5 23.41L257.5 23.41L256.5 23.41L256.5 30.8333L257.5 30.8333ZM257.5 23.41L257.521 22.4102C254.122 22.3394 251.362 19.5149 251.362 15.995L250.362 15.995L249.362 15.995C249.362 20.5747 252.963 24.3157 257.479 24.4098L257.5 23.41ZM250.362 15.995L251.362 15.995C251.362 12.4751 254.122 9.65062 257.521 9.57979L257.5 8.58001L257.479 7.58022C252.963 7.67434 249.362 11.4153 249.362 15.995L250.362 15.995ZM257.5 8.58001L258.5 8.58001L258.5 1L257.5 1L256.5 1L256.5 8.58001L257.5 8.58001ZM257.5 1L257.5 4.06867e-06L250.208 4.38741e-06L250.208 1L250.208 2L257.5 2L257.5 1ZM250.208 1L249.208 1L249.208 1.14847L250.208 1.14847L251.208 1.14847L251.208 1L250.208 1ZM250.208 1.14847L249.208 1.14847C249.208 4.71346 246.377 7.57175 242.924 7.57175L242.924 8.57175L242.924 9.57175C247.517 9.57175 251.208 5.78206 251.208 1.14847L250.208 1.14847ZM242.924 8.57175L242.924 7.57175C239.472 7.57175 236.641 4.71344 236.641 1.14847L235.641 1.14847L234.641 1.14847C234.641 5.78208 238.332 9.57175 242.924 9.57175L242.924 8.57175ZM235.641 1.14847L236.641 1.14847L236.641 1L235.641 1.00001L234.641 1.00001L234.641 1.14847L235.641 1.14847ZM235.641 1.00001L235.641 5.02417e-06L229.804 5.27929e-06L229.804 1.00001L229.804 2.00001L235.641 2.00001L235.641 1.00001ZM229.804 1.00001L228.804 1.00001L228.804 1.14847L229.804 1.14847L230.804 1.14847L230.804 1.00001L229.804 1.00001ZM229.804 1.14847L228.804 1.14847C228.804 4.71346 225.973 7.57175 222.521 7.57175L222.521 8.57175L222.521 9.57175C227.113 9.57175 230.804 5.78206 230.804 1.14847L229.804 1.14847ZM222.521 8.57175L222.521 7.57175C219.068 7.57175 216.237 4.71346 216.237 1.14847L215.237 1.14847L214.237 1.14847C214.237 5.78206 217.928 9.57175 222.521 9.57175L222.521 8.57175ZM215.237 1.14847L216.237 1.14847L216.237 1.00001L215.237 1.00001L214.237 1.00001L214.237 1.14847L215.237 1.14847ZM215.237 1.00001L215.237 5.91606e-06L209.102 6.1842e-06L209.102 1.00001L209.102 2.00001L215.237 2.00001L215.237 1.00001ZM209.102 1.00001L208.102 1.00001L208.102 1.14847L209.102 1.14847L210.102 1.14847L210.102 1.00001L209.102 1.00001ZM209.102 1.14847L208.102 1.14847C208.102 4.71346 205.271 7.57175 201.819 7.57175L201.819 8.57175L201.819 9.57175C206.411 9.57175 210.102 5.78206 210.102 1.14847L209.102 1.14847ZM201.819 8.57175L201.819 7.57175C198.366 7.57175 195.535 4.71345 195.535 1.14847L194.535 1.14847L193.535 1.14847C193.535 5.78208 197.226 9.57175 201.819 9.57175L201.819 8.57175ZM194.535 1.14847L195.535 1.14847L195.535 1.00001L194.535 1.00001L193.535 1.00001L193.535 1.14847L194.535 1.14847ZM194.535 1.00001L194.535 6.82097e-06L188.4 7.08911e-06L188.4 1.00001L188.4 2.00001L194.535 2.00001L194.535 1.00001ZM188.4 1.00001L187.4 1.00001L187.4 1.14848L188.4 1.14848L189.4 1.14848L189.4 1.00001L188.4 1.00001ZM188.4 1.14848L187.4 1.14848C187.4 4.71346 184.569 7.57175 181.117 7.57175L181.117 8.57175L181.117 9.57175C185.709 9.57175 189.4 5.78207 189.4 1.14848L188.4 1.14848ZM181.117 8.57175L181.117 7.57175C177.664 7.57175 174.833 4.71345 174.833 1.14848L173.833 1.14848L172.833 1.14848C172.833 5.78208 176.524 9.57175 181.117 9.57175L181.117 8.57175ZM173.833 1.14848L174.833 1.14848L174.833 1.00001L173.833 1.00001L172.833 1.00001L172.833 1.14848L173.833 1.14848ZM173.833 1.00001L173.833 7.72588e-06L167.698 7.99403e-06L167.698 1.00001L167.698 2.00001L173.833 2.00001L173.833 1.00001ZM167.698 1.00001L166.698 1.00001L166.698 1.14848L167.698 1.14848L168.698 1.14848L168.698 1.00001L167.698 1.00001ZM167.698 1.14848L166.698 1.14848C166.698 4.71346 163.867 7.57175 160.415 7.57176L160.415 8.57176L160.415 9.57176C165.007 9.57175 168.698 5.78207 168.698 1.14848L167.698 1.14848ZM160.415 8.57176L160.415 7.57176C156.963 7.57176 154.131 4.71346 154.131 1.14848L153.131 1.14848L152.131 1.14848C152.131 5.78207 155.822 9.57176 160.415 9.57176L160.415 8.57176ZM153.131 1.14848L154.131 1.14848L154.131 1.00001L153.131 1.00001L152.131 1.00001L152.131 1.14848L153.131 1.14848ZM153.131 1.00001L153.131 8.63079e-06L146.996 8.89894e-06L146.996 1.00001L146.996 2.00001L153.131 2.00001L153.131 1.00001ZM146.996 1.00001L145.996 1.00001L145.996 1.14848L146.996 1.14848L147.996 1.14848L147.996 1.00001L146.996 1.00001ZM146.996 1.14848L145.996 1.14848C145.996 4.71345 143.165 7.57176 139.713 7.57176L139.713 8.57176L139.713 9.57176C144.305 9.57176 147.996 5.78208 147.996 1.14848L146.996 1.14848ZM139.713 8.57176L139.713 7.57176C136.261 7.57176 133.429 4.71346 133.429 1.14848L132.429 1.14848L131.429 1.14848C131.429 5.78207 135.12 9.57176 139.713 9.57176L139.713 8.57176ZM132.429 1.14848L133.429 1.14848L133.429 1.00001L132.429 1.00001L131.429 1.00001L131.429 1.14848L132.429 1.14848ZM132.429 1.00001L132.429 9.5357e-06L126.294 9.80385e-06L126.294 1.00001L126.294 2.00001L132.429 2.00001L132.429 1.00001ZM126.294 1.00001L125.294 1.00001L125.294 1.14848L126.294 1.14848L127.294 1.14848L127.294 1.00001L126.294 1.00001ZM126.294 1.14848L125.294 1.14848C125.294 4.71347 122.463 7.57176 119.011 7.57176L119.011 8.57176L119.011 9.57176C123.603 9.57176 127.294 5.78207 127.294 1.14848L126.294 1.14848ZM119.011 8.57176L119.011 7.57176C115.559 7.57176 112.727 4.71347 112.727 1.14848L111.727 1.14848L110.727 1.14848C110.727 5.78207 114.418 9.57176 119.011 9.57176L119.011 8.57176ZM111.727 1.14848L112.727 1.14848L112.727 1.00001L111.727 1.00001L110.727 1.00001L110.727 1.14848L111.727 1.14848ZM111.727 1.00001L111.727 1.04406e-05L105.592 1.07088e-05L105.592 1.00001L105.592 2.00001L111.727 2.00001L111.727 1.00001ZM105.592 1.00001L104.592 1.00001L104.592 1.14848L105.592 1.14848L106.592 1.14848L106.592 1.00001L105.592 1.00001ZM105.592 1.14848L104.592 1.14848C104.592 4.71347 101.761 7.57176 98.3088 7.57176L98.3088 8.57176L98.3088 9.57176C102.901 9.57176 106.592 5.78207 106.592 1.14848L105.592 1.14848ZM98.3088 8.57176L98.3088 7.57176C94.8566 7.57176 92.025 4.71347 92.025 1.14848L91.025 1.14848L90.025 1.14848C90.025 5.78207 93.7165 9.57176 98.3088 9.57176L98.3088 8.57176ZM91.025 1.14848L92.025 1.14848L92.025 1.00001L91.025 1.00001L90.025 1.00001L90.025 1.14848L91.025 1.14848ZM91.025 1.00001L91.025 1.13455e-05L84.8905 1.16137e-05L84.8905 1.00001L84.8905 2.00001L91.025 2.00001L91.025 1.00001ZM84.8905 1.00001L83.8905 1.00001L83.8905 1.14848L84.8905 1.14848L85.8905 1.14848L85.8905 1.00001L84.8905 1.00001ZM84.8905 1.14848L83.8905 1.14848C83.8905 4.71347 81.0589 7.57176 77.6068 7.57176L77.6068 8.57176L77.6068 9.57176C82.1991 9.57176 85.8905 5.78207 85.8905 1.14848L84.8905 1.14848ZM77.6068 8.57176L77.6068 7.57176C74.1547 7.57176 71.3231 4.71347 71.3231 1.14848L70.3231 1.14848L69.3231 1.14848C69.3231 5.78207 73.0145 9.57176 77.6068 9.57176L77.6068 8.57176ZM70.3231 1.14848L71.3231 1.14848L71.3231 1.00001L70.3231 1.00001L69.3231 1.00001L69.3231 1.14848L70.3231 1.14848ZM70.3231 1.00001L70.3231 1.22504e-05L64.1886 1.25186e-05L64.1886 1.00001L64.1886 2.00001L70.3231 2.00001L70.3231 1.00001ZM64.1886 1.00001L63.1886 1.00001L63.1886 1.14848L64.1886 1.14848L65.1886 1.14848L65.1886 1.00001L64.1886 1.00001ZM64.1886 1.14848L63.1886 1.14848C63.1886 4.71345 60.357 7.57176 56.9048 7.57176L56.9048 8.57176L56.9048 9.57176C61.4971 9.57176 65.1886 5.78209 65.1886 1.14848L64.1886 1.14848ZM56.9048 8.57176L56.9048 7.57176C53.4527 7.57176 50.6211 4.71347 50.6211 1.14848L49.6211 1.14848L48.6211 1.14848C48.6211 5.78207 52.3125 9.57176 56.9048 9.57176L56.9048 8.57176ZM49.6211 1.14848L50.6211 1.14848L50.6211 1.00001L49.6211 1.00001L48.6211 1.00001L48.6211 1.14848L49.6211 1.14848ZM49.6211 1.00001L49.6211 1.31553e-05L43.4866 1.34235e-05L43.4866 1.00001L43.4866 2.00001L49.6211 2.00001L49.6211 1.00001ZM43.4866 1.00001L42.4866 1.00001L42.4866 1.14848L43.4866 1.14848L44.4866 1.14848L44.4866 1.00001L43.4866 1.00001ZM43.4866 1.14848L42.4866 1.14848C42.4866 4.71347 39.655 7.57176 36.2029 7.57176L36.2029 8.57176L36.2029 9.57176C40.7952 9.57176 44.4866 5.78207 44.4866 1.14848L43.4866 1.14848ZM36.2029 8.57176L36.2029 7.57176C32.7508 7.57176 29.9192 4.71347 29.9192 1.14848L28.9192 1.14848L27.9192 1.14848C27.9192 5.78207 31.6106 9.57176 36.2029 9.57176L36.2029 8.57176ZM28.9192 1.14848L29.9192 1.14848L29.9192 1.00001L28.9192 1.00001L27.9192 1.00001L27.9192 1.14848L28.9192 1.14848ZM28.9192 1.00001L28.9192 1.40603e-05L22.7846 1.43284e-05L22.7846 1.00001L22.7846 2.00001L28.9192 2.00001L28.9192 1.00001ZM22.7846 1.00001L21.7848 0.979949C21.7144 4.4895 18.9179 7.27483 15.509 7.27483L15.509 8.27483L15.509 9.27483C20.0475 9.27483 23.693 5.57715 23.7844 1.02008L22.7846 1.00001ZM15.509 8.27483L15.509 7.27483C12.1002 7.27483 9.30362 4.4895 9.2332 0.97995L8.2334 1.00001L7.2336 1.02008C7.32504 5.57715 10.9705 9.27483 15.509 9.27483L15.509 8.27483ZM8.2334 1.00001L8.2334 1.49645e-05L1.49999 1.52588e-05L1.49999 1.00002L1.49999 2.00002L8.2334 2.00001L8.2334 1.00001ZM1.49999 1.00002L0.499991 1.00002L0.499991 8.58002L1.49999 8.58002L2.49999 8.58002L2.49999 1.00002L1.49999 1.00002ZM1.49999 8.58002L1.49999 9.58002L1.64567 9.58002L1.64567 8.58002L1.64567 7.58002L1.49999 7.58002L1.49999 8.58002ZM1.64567 8.58002L1.64567 9.58002C5.09781 9.58002 7.92939 12.4383 7.92939 16.0033L8.92939 16.0033L9.92939 16.0033C9.92939 11.3697 6.23799 7.58002 1.64567 7.58002L1.64567 8.58002ZM8.92939 16.0033L7.92939 16.0033C7.92939 19.5683 5.09781 22.4265 1.64567 22.4265L1.64567 23.4265L1.64567 24.4265C6.23799 24.4265 9.92939 20.6369 9.92939 16.0033L8.92939 16.0033ZM1.64567 23.4265L1.64567 22.4265L1.49999 22.4265L1.49999 23.4265L1.49999 24.4265L1.64567 24.4265L1.64567 23.4265ZM1.49999 23.4265L0.499992 23.4265L0.499992 30.8498L1.49999 30.8498L2.49999 30.8498L2.49999 23.4265L1.49999 23.4265ZM1.49999 30.8498L1.47916 31.8496C4.87843 31.9204 7.63804 34.7449 7.63804 38.2648L8.63804 38.2648L9.63804 38.2648C9.63804 33.6851 6.03653 29.9441 1.52083 29.85L1.49999 30.8498ZM8.63804 38.2648L7.63804 38.2648C7.63804 41.7848 4.87844 44.6092 1.47916 44.6801L1.49999 45.6799L1.52083 46.6796C6.03653 46.5855 9.63804 42.8445 9.63804 38.2648L8.63804 38.2648ZM1.49999 45.6799L0.499993 45.6799L0.499993 53.1031L1.49999 53.1031L2.49999 53.1031L2.49999 45.6799L1.49999 45.6799ZM1.49999 53.1031L1.47916 54.1029C4.87844 54.1737 7.63804 56.9982 7.63804 60.5181L8.63804 60.5181L9.63804 60.5181C9.63804 55.9384 6.03653 52.1974 1.52083 52.1033L1.49999 53.1031ZM8.63804 60.5181L7.63804 60.5181C7.63804 64.0381 4.87844 66.8625 1.47916 66.9334L1.49999 67.9332L1.52083 68.933C6.03653 68.8388 9.63804 65.0978 9.63804 60.5181L8.63804 60.5181ZM1.49999 67.9332L0.499994 67.9332L0.499994 75.3564L1.49999 75.3564L2.49999 75.3564L2.49999 67.9332L1.49999 67.9332ZM1.49999 75.3564L1.47916 76.3562C4.87844 76.427 7.63804 79.2515 7.63804 82.7715L8.63804 82.7715L9.63804 82.7715C9.63804 78.1918 6.03653 74.4508 1.52083 74.3566L1.49999 75.3564ZM8.63804 82.7715L7.63804 82.7715C7.63804 86.2914 4.87844 89.1158 1.47916 89.1867L1.49999 90.1865L1.52083 91.1862C6.03653 91.0921 9.63804 87.3512 9.63804 82.7715L8.63804 82.7715ZM1.49999 90.1865L0.499995 90.1865L0.499995 97.6097L1.5 97.6097L2.5 97.6097L2.49999 90.1865L1.49999 90.1865ZM1.5 97.6097L1.47916 98.6095C4.87844 98.6804 7.63804 101.505 7.63804 105.025L8.63804 105.025L9.63804 105.025C9.63804 100.445 6.03653 96.7041 1.52083 96.6099L1.5 97.6097ZM8.63804 105.025L7.63804 105.025C7.63804 108.545 4.87844 111.369 1.47916 111.44L1.5 112.44L1.52083 113.44C6.03653 113.345 9.63804 109.604 9.63804 105.025L8.63804 105.025ZM1.5 112.44L0.499996 112.44L0.499996 119.863L1.5 119.863L2.5 119.863L2.5 112.44L1.5 112.44ZM1.5 119.863L1.47916 120.863C4.87844 120.934 7.63804 123.758 7.63805 127.278L8.63805 127.278L9.63804 127.278C9.63804 122.698 6.03653 118.957 1.52083 118.863L1.5 119.863ZM8.63805 127.278L7.63805 127.278C7.63805 130.798 4.87844 133.622 1.47916 133.693L1.5 134.693L1.52083 135.693C6.03653 135.599 9.63804 131.858 9.63804 127.278L8.63805 127.278ZM1.5 134.693L0.499997 134.693L0.499997 142.116L1.5 142.116L2.5 142.116L2.5 134.693L1.5 134.693ZM1.5 142.116L1.47916 143.116C4.87844 143.187 7.63805 146.011 7.63805 149.531L8.63805 149.531L9.63805 149.531C9.63805 144.952 6.03653 141.211 1.52083 141.117L1.5 142.116ZM8.63805 149.531L7.63805 149.531C7.63805 153.051 4.87844 155.876 1.47916 155.947L1.5 156.946L1.52084 157.946C6.03653 157.852 9.63805 154.111 9.63805 149.531L8.63805 149.531ZM1.5 156.946L0.499998 156.946L0.499998 164.37L1.5 164.37L2.5 164.37L2.5 156.946L1.5 156.946ZM1.5 164.37L1.47916 165.369C4.87844 165.44 7.63805 168.265 7.63805 171.785L8.63805 171.785L9.63805 171.785C9.63805 167.205 6.03653 163.464 1.52084 163.37L1.5 164.37ZM8.63805 171.785L7.63805 171.785C7.63805 175.305 4.87844 178.129 1.47916 178.2L1.5 179.2L1.52084 180.199C6.03653 180.105 9.63805 176.364 9.63805 171.785L8.63805 171.785ZM1.5 179.2L0.499999 179.2L0.499999 186.623L1.5 186.623L2.5 186.623L2.5 179.2L1.5 179.2ZM1.5 186.623L1.47916 187.623C4.87845 187.694 7.63805 190.518 7.63805 194.038L8.63805 194.038L9.63805 194.038C9.63805 189.458 6.03653 185.717 1.52084 185.623L1.5 186.623ZM8.63805 194.038L7.63805 194.038C7.63805 197.558 4.87845 200.382 1.47916 200.453L1.5 201.453L1.52084 202.453C6.03653 202.359 9.63805 198.618 9.63805 194.038L8.63805 194.038ZM1.5 201.453L0.988935 202.313L1.18315 202.428L1.69421 201.568L2.20528 200.709L2.01106 200.593L1.5 201.453Z" fill="#847F6A" mask="url(#path-1-inside-1_67_593)"/>
<path d="M215.772 69.655V63.895H223.708C227.1 63.895 228.828 62.295 228.828 59.607V58.967C228.828 55.831 226.204 52.631 223.26 49.175C219.74 44.951 215.708 40.087 215.708 34.903V34.007C215.708 28.823 219.228 24.855 225.692 24.855H234.204V30.615H226.46C223.708 30.615 221.916 32.151 221.916 34.647V35.159C221.916 37.911 224.604 41.047 227.484 44.439C231.004 48.599 235.036 53.463 235.036 58.839V59.735C235.036 65.559 231.708 69.655 224.86 69.655H215.772Z" fill="#5E5A4B"/>
<path d="M208.157 40.791L205.085 38.295L209.501 31.895H206.045V24.855H212.445V30.359C212.445 32.215 212.317 34.199 211.101 35.863L208.157 40.791Z" fill="#5E5A4B"/>
<path d="M177.374 69.655V24.855H183.006L194.398 54.871V24.855H200.35V69.655H194.718L183.326 40.343V69.655H177.374Z" fill="#5E5A4B"/>
<path d="M149.486 69.975C136.11 69.975 127.854 61.399 127.854 47.703V46.807C127.854 33.111 136.11 24.535 149.486 24.535H150.19C163.566 24.535 171.822 33.111 171.822 46.807V47.703C171.822 61.399 163.566 69.975 150.19 69.975H149.486ZM150.126 64.279C160.174 64.279 165.486 57.815 165.486 47.639V46.871C165.486 36.695 160.174 30.231 150.126 30.231H149.55C139.502 30.231 134.19 36.695 134.19 46.871V47.639C134.19 57.815 139.502 64.279 149.55 64.279H150.126Z" fill="#5E5A4B"/>
<path d="M105.21 69.655V63.895H113.146C116.538 63.895 118.266 62.295 118.266 59.607V58.967C118.266 55.831 115.642 52.631 112.698 49.175C109.178 44.951 105.146 40.087 105.146 34.903V34.007C105.146 28.823 108.666 24.855 115.13 24.855H123.642V30.615H115.898C113.146 30.615 111.354 32.151 111.354 34.647V35.159C111.354 37.911 114.042 41.047 116.922 44.439C120.442 48.599 124.474 53.463 124.474 58.839V59.735C124.474 65.559 121.146 69.655 114.298 69.655H105.21Z" fill="#5E5A4B"/>
<path d="M94.249 69.655V24.855H100.457V69.655H94.249Z" fill="#5E5A4B"/>
<path d="M73.249 69.655V24.855H79.457V63.959H90.401V69.655H73.249Z" fill="#5E5A4B"/>
<path d="M52.249 69.655V24.855H58.457V63.959H69.401V69.655H52.249Z" fill="#5E5A4B"/>
<path d="M23.5 69.655L33.1 24.855H39.436L48.524 69.655H42.188L40.524 61.207H31.5L29.708 69.655H23.5ZM32.332 55.767H39.756L36.172 35.159L32.332 55.767Z" fill="#5E5A4B"/>
<path d="M217.331 110.371C223.064 110.371 225.157 107.368 225.157 101.271V94.992C225.157 89.259 223.064 85.983 217.422 85.983H212.963V110.371H217.331ZM204.136 141.675V77.975H218.241C228.433 77.975 233.984 83.526 233.984 93.809V102.181C233.984 113.01 228.342 118.47 218.241 118.47H212.963V141.675H204.136Z" fill="#5E5A4B"/>
<path d="M195.034 141.675H186.207V94.173L163.184 133.758H156.632L133.427 93.991V141.675H124.6V77.975H133.336L159.999 123.475L186.207 77.975H195.034V141.675Z" fill="#5E5A4B"/>
<path d="M83.7222 141.675L97.3722 77.975H106.381L119.303 141.675H110.294L107.928 129.663H95.0972L92.5492 141.675H83.7222ZM96.2802 121.928H106.836L101.74 92.626L96.2802 121.928Z" fill="#5E5A4B"/>
<path d="M53.522 85.983V77.975H86.009V85.983H74.179V141.675H65.352V85.983H53.522Z" fill="#5E5A4B"/>
<path d="M23.591 141.675V133.485H34.875C39.698 133.485 42.155 131.21 42.155 127.388V126.478C42.155 122.019 38.424 117.469 34.238 112.555C29.233 106.549 23.5 99.633 23.5 92.262V90.988C23.5 83.617 28.505 77.975 37.696 77.975H49.799V86.165H38.788C34.875 86.165 32.327 88.349 32.327 91.898V92.626C32.327 96.539 36.149 100.998 40.244 105.821C45.249 111.736 50.982 118.652 50.982 126.296V127.57C50.982 135.851 46.25 141.675 36.513 141.675H23.591Z" fill="#5E5A4B"/>
<path d="M216.596 184.22V149.92H220.908L229.63 172.901V149.92H234.187V184.22H229.875L221.153 161.778V184.22H216.596Z" fill="#5E5A4B"/>
<path d="M195.245 184.465C185.004 184.465 178.683 177.899 178.683 167.413V166.727C178.683 156.241 185.004 149.675 195.245 149.675H195.784C206.025 149.675 212.346 156.241 212.346 166.727V167.413C212.346 177.899 206.025 184.465 195.784 184.465H195.245ZM195.735 180.104C203.428 180.104 207.495 175.155 207.495 167.364V166.776C207.495 158.985 203.428 154.036 195.735 154.036H195.294C187.601 154.036 183.534 158.985 183.534 166.776V167.364C183.534 175.155 187.601 180.104 195.294 180.104H195.735Z" fill="#5E5A4B"/>
<path d="M169.654 184.22V149.92H174.407V184.22H169.654Z" fill="#5E5A4B"/>
<path d="M148.943 154.232V149.92H166.436V154.232H160.066V184.22H155.313V154.232H148.943Z" fill="#5E5A4B"/>
<path d="M137.464 184.22C127.321 184.22 121.931 176.821 121.931 167.609V166.531C121.931 157.319 127.321 149.92 137.464 149.92H147.215V154.232H137.905C130.604 154.232 126.782 159.426 126.782 166.776V167.364C126.782 174.763 130.604 179.908 137.905 179.908H147.215V184.22H137.464Z" fill="#5E5A4B"/>
<path d="M105.868 184.22V149.92H119.588V154.232H110.572V164.081H117.726V168.393H110.572V179.908H119.588V184.22H105.868Z" fill="#5E5A4B"/>
<path d="M89.7896 184.22V149.92H94.5426V179.859H102.922V184.22H89.7896Z" fill="#5E5A4B"/>
<path d="M73.7114 184.22V149.92H78.4644V179.859H86.8434V184.22H73.7114Z" fill="#5E5A4B"/>
<path d="M59.528 184.465C54.481 184.465 51.835 181.672 51.835 176.086V158.005C51.835 152.468 54.481 149.675 59.528 149.675H61.439C66.486 149.675 69.132 152.468 69.132 158.005V176.086C69.132 181.672 66.486 184.465 61.439 184.465H59.528ZM60.851 180.104C63.203 180.104 64.379 178.781 64.379 175.792V158.397C64.379 155.408 63.203 154.085 60.851 154.085H60.116C57.764 154.085 56.588 155.408 56.588 158.397V175.792C56.588 178.781 57.764 180.104 60.116 180.104H60.851Z" fill="#5E5A4B"/>
<path d="M39.033 184.22C28.89 184.22 23.5 176.821 23.5 167.609V166.531C23.5 157.319 28.89 149.92 39.033 149.92H48.784V154.232H39.474C32.173 154.232 28.351 159.426 28.351 166.776V167.364C28.351 174.763 32.173 179.908 39.474 179.908H48.784V184.22H39.033Z" fill="#5E5A4B"/>
</svg>
