<svg width="216" height="176" viewBox="0 0 216 176" fill="none" xmlns="http://www.w3.org/2000/svg">
<path d="M0.576 54L10.176 9.2H16.512L25.6 54H19.264L17.6 45.552H8.576L6.784 54H0.576ZM9.408 40.112H16.832L13.248 19.504L9.408 40.112ZM29.325 54V9.2H35.533V48.304H46.477V54H29.325ZM50.325 54V9.2H56.533V48.304H67.477V54H50.325ZM71.325 54V9.2H77.533V54H71.325ZM82.286 54V48.24H90.222C93.614 48.24 95.342 46.64 95.342 43.952V43.312C95.342 40.176 92.718 36.976 89.774 33.52C86.254 29.296 82.222 24.432 82.222 19.248V18.352C82.222 13.168 85.742 9.2 92.206 9.2H100.718V14.96H92.974C90.222 14.96 88.43 16.496 88.43 18.992V19.504C88.43 22.256 91.118 25.392 93.998 28.784C97.518 32.944 101.55 37.808 101.55 43.184V44.08C101.55 49.904 98.222 54 91.374 54H82.286ZM126.563 54.32C113.187 54.32 104.931 45.744 104.931 32.048V31.152C104.931 17.456 113.187 8.88 126.563 8.88H127.267C140.643 8.88 148.899 17.456 148.899 31.152V32.048C148.899 45.744 140.643 54.32 127.267 54.32H126.563ZM127.203 48.624C137.251 48.624 142.562 42.16 142.562 31.984V31.216C142.562 21.04 137.251 14.576 127.203 14.576H126.627C116.579 14.576 111.267 21.04 111.267 31.216V31.984C111.267 42.16 116.579 48.624 126.627 48.624H127.203ZM154.45 54V9.2H160.082L171.474 39.216V9.2H177.426V54H171.794L160.402 24.688V54H154.45ZM185.233 25.136L182.161 22.64L186.577 16.24H183.121V9.2H189.521V14.704C189.521 16.56 189.393 18.544 188.177 20.208L185.233 25.136ZM192.849 54V48.24H200.785C204.177 48.24 205.905 46.64 205.905 43.952V43.312C205.905 40.176 203.281 36.976 200.337 33.52C196.817 29.296 192.785 24.432 192.785 19.248V18.352C192.785 13.168 196.305 9.2 202.769 9.2H211.281V14.96H203.537C200.785 14.96 198.993 16.496 198.993 18.992V19.504C198.993 22.256 201.681 25.392 204.561 28.784C208.081 32.944 212.113 37.808 212.113 43.184V44.08C212.113 49.904 208.785 54 201.937 54H192.849Z" fill="#5E5A4B"/>
<path d="M2.184 127V118.81H13.468C18.291 118.81 20.748 116.535 20.748 112.713V111.803C20.748 107.344 17.017 102.794 12.831 97.88C7.826 91.874 2.093 84.958 2.093 77.587V76.313C2.093 68.942 7.098 63.3 16.289 63.3H28.392V71.49H17.381C13.468 71.49 10.92 73.674 10.92 77.223V77.951C10.92 81.864 14.742 86.323 18.837 91.146C23.842 97.061 29.575 103.977 29.575 111.621V112.895C29.575 121.176 24.843 127 15.106 127H2.184ZM32.1152 71.308V63.3H64.6022V71.308H52.7722V127H43.9452V71.308H32.1152ZM62.3151 127L75.9651 63.3H84.9741L97.8961 127H88.8871L86.5211 114.988H73.6901L71.1421 127H62.3151ZM74.8731 107.253H85.4291L80.3331 77.951L74.8731 107.253ZM173.627 127H164.8V79.498L141.777 119.083H135.225L112.02 79.316V127H103.193V63.3H111.929L138.592 108.8L164.8 63.3H173.627V127ZM195.924 95.696C201.657 95.696 203.75 92.693 203.75 86.596V80.317C203.75 74.584 201.657 71.308 196.015 71.308H191.556V95.696H195.924ZM182.729 127V63.3H196.834C207.026 63.3 212.577 68.851 212.577 79.134V87.506C212.577 98.335 206.935 103.795 196.834 103.795H191.556V127H182.729Z" fill="#5E5A4B"/>
<path d="M17.346 169C7.203 169 1.813 161.601 1.813 152.389V151.311C1.813 142.099 7.203 134.7 17.346 134.7H27.097V139.012H17.787C10.486 139.012 6.664 144.206 6.664 151.556V152.144C6.664 159.543 10.486 164.688 17.787 164.688H27.097V169H17.346ZM37.841 169.245C32.794 169.245 30.148 166.452 30.148 160.866V142.785C30.148 137.248 32.794 134.455 37.841 134.455H39.752C44.799 134.455 47.445 137.248 47.445 142.785V160.866C47.445 166.452 44.799 169.245 39.752 169.245H37.841ZM39.164 164.884C41.516 164.884 42.692 163.561 42.692 160.572V143.177C42.692 140.188 41.516 138.865 39.164 138.865H38.429C36.077 138.865 34.901 140.188 34.901 143.177V160.572C34.901 163.561 36.077 164.884 38.429 164.884H39.164ZM52.0242 169V134.7H56.7772V164.639H65.1562V169H52.0242ZM68.1023 169V134.7H72.8553V164.639H81.2343V169H68.1023ZM84.1805 169V134.7H97.9005V139.012H88.8845V148.861H96.0385V153.173H88.8845V164.688H97.9005V169H84.1805ZM115.777 169C105.634 169 100.244 161.601 100.244 152.389V151.311C100.244 142.099 105.634 134.7 115.777 134.7H125.528V139.012H116.218C108.917 139.012 105.095 144.206 105.095 151.556V152.144C105.095 159.543 108.917 164.688 116.218 164.688H125.528V169H115.777ZM127.256 139.012V134.7H144.749V139.012H138.379V169H133.626V139.012H127.256ZM147.967 169V134.7H152.72V169H147.967ZM173.558 169.245C163.317 169.245 156.996 162.679 156.996 152.193V151.507C156.996 141.021 163.317 134.455 173.558 134.455H174.097C184.338 134.455 190.659 141.021 190.659 151.507V152.193C190.659 162.679 184.338 169.245 174.097 169.245H173.558ZM174.048 164.884C181.741 164.884 185.808 159.935 185.808 152.144V151.556C185.808 143.765 181.741 138.816 174.048 138.816H173.607C165.914 138.816 161.847 143.765 161.847 151.556V152.144C161.847 159.935 165.914 164.884 173.607 164.884H174.048ZM194.909 169V134.7H199.221L207.943 157.681V134.7H212.5V169H208.188L199.466 146.558V169H194.909Z" fill="#5E5A4B"/>
</svg>
